<?xml version="1.0" encoding="UTF-8"?>
<!DOCTYPE svg PUBLIC "-//W3C//DTD SVG 1.1//EN" "http://www.w3.org/Graphics/SVG/1.1/DTD/svg11.dtd">
<svg xmlns="http://www.w3.org/2000/svg" xmlns:xlink="http://www.w3.org/1999/xlink" version="1.1" width="221px" height="141px" viewBox="-0.5 -0.5 221 141"><defs/><g><path d="M 130 120 L 130 100" fill="none" stroke="rgb(0, 0, 0)" stroke-width="0.5" stroke-miterlimit="10" pointer-events="stroke"/><path d="M 162.93 122.93 L 137.07 97.07" fill="none" stroke="rgb(0, 0, 0)" stroke-width="0.5" stroke-miterlimit="10" pointer-events="stroke"/><path d="M 122.93 42.93 L 97.07 17.07" fill="none" stroke="rgb(0, 0, 0)" stroke-width="0.5" stroke-miterlimit="10" pointer-events="stroke"/><path d="M 162.93 82.93 L 137.07 57.07" fill="none" stroke="rgb(0, 0, 0)" stroke-width="0.5" stroke-miterlimit="10" pointer-events="stroke"/><path d="M 130 80 L 130 60" fill="none" stroke="rgb(0, 0, 0)" stroke-width="0.5" stroke-miterlimit="10" pointer-events="stroke"/><ellipse cx="130" cy="130" rx="10" ry="10" fill="none" stroke="rgb(0, 0, 0)" stroke-width="0.5" pointer-events="all"/><ellipse cx="170" cy="130" rx="10" ry="10" fill="none" stroke="rgb(0, 0, 0)" stroke-width="0.5" pointer-events="all"/><ellipse cx="130" cy="90" rx="10" ry="10" fill="none" stroke="rgb(0, 0, 0)" stroke-width="0.5" pointer-events="all"/><ellipse cx="170" cy="90" rx="10" ry="10" fill="none" stroke="rgb(0, 0, 0)" stroke-width="0.5" pointer-events="all"/><ellipse cx="130" cy="50" rx="10" ry="10" fill="none" stroke="rgb(0, 0, 0)" stroke-width="0.5" pointer-events="all"/><ellipse cx="90" cy="10" rx="10" ry="10" fill="none" stroke="rgb(0, 0, 0)" stroke-width="0.5" pointer-events="all"/><path d="M 14.47 121.06 L 25.53 98.94" fill="none" stroke="rgb(0, 0, 0)" stroke-width="0.5" stroke-miterlimit="10" pointer-events="stroke"/><path d="M 54.47 121.06 L 65.53 98.94" fill="none" stroke="rgb(0, 0, 0)" stroke-width="0.5" stroke-miterlimit="10" pointer-events="stroke"/><path d="M 85.53 121.06 L 74.47 98.94" fill="none" stroke="rgb(0, 0, 0)" stroke-width="0.5" stroke-miterlimit="10" pointer-events="stroke"/><path d="M 65.53 81.06 L 54.47 58.94" fill="none" stroke="rgb(0, 0, 0)" stroke-width="0.5" stroke-miterlimit="10" pointer-events="stroke"/><path d="M 34.47 81.06 L 45.53 58.94" fill="none" stroke="rgb(0, 0, 0)" stroke-width="0.5" stroke-miterlimit="10" pointer-events="stroke"/><ellipse cx="50" cy="130" rx="10" ry="10" fill="none" stroke="rgb(0, 0, 0)" stroke-width="0.5" pointer-events="all"/><ellipse cx="10" cy="130" rx="10" ry="10" fill="none" stroke="rgb(0, 0, 0)" stroke-width="0.5" pointer-events="all"/><ellipse cx="90" cy="130" rx="10" ry="10" fill="none" stroke="rgb(0, 0, 0)" stroke-width="0.5" pointer-events="all"/><ellipse cx="30" cy="90" rx="10" ry="10" fill="none" stroke="rgb(0, 0, 0)" stroke-width="0.5" pointer-events="all"/><ellipse cx="70" cy="90" rx="10" ry="10" fill="none" stroke="rgb(0, 0, 0)" stroke-width="0.5" pointer-events="all"/><ellipse cx="50" cy="50" rx="10" ry="10" fill="none" stroke="rgb(0, 0, 0)" stroke-width="0.5" pointer-events="all"/><path d="M 82.93 17.07 L 57.07 42.93" fill="none" stroke="rgb(0, 0, 0)" stroke-width="0.5" stroke-miterlimit="10" pointer-events="stroke"/><ellipse cx="210" cy="130" rx="10" ry="10" fill="none" stroke="rgb(0, 0, 0)" stroke-width="0.5" pointer-events="all"/><path d="M 202.93 122.93 L 177.07 97.07" fill="none" stroke="rgb(0, 0, 0)" stroke-width="0.5" stroke-miterlimit="10" pointer-events="stroke"/></g></svg>