<?xml version="1.0" encoding="UTF-8"?>
<!DOCTYPE svg PUBLIC "-//W3C//DTD SVG 1.1//EN" "http://www.w3.org/Graphics/SVG/1.1/DTD/svg11.dtd">
<svg xmlns="http://www.w3.org/2000/svg" xmlns:xlink="http://www.w3.org/1999/xlink" version="1.1" width="601px" height="281px" viewBox="-0.5 -0.5 601 281" style="background-color: rgb(255, 255, 255);"><defs/><g><path d="M 140 100 L 300 20" fill="none" stroke="rgb(0, 0, 0)" stroke-width="0.5" stroke-miterlimit="10" pointer-events="stroke"/><path d="M 60 180 L 140 100" fill="none" stroke="rgb(0, 0, 0)" stroke-width="0.5" stroke-miterlimit="10" pointer-events="stroke"/><path d="M 220 180 L 140 100" fill="none" stroke="rgb(0, 0, 0)" stroke-width="0.5" stroke-miterlimit="10" pointer-events="stroke"/><path d="M 20 260 L 60 180" fill="none" stroke="rgb(0, 0, 0)" stroke-width="0.5" stroke-miterlimit="10" pointer-events="stroke"/><path d="M 180 260 L 220 180" fill="none" stroke="rgb(0, 0, 0)" stroke-width="0.5" stroke-miterlimit="10" pointer-events="stroke"/><path d="M 220 180 L 260 260" fill="none" stroke="rgb(0, 0, 0)" stroke-width="0.5" stroke-miterlimit="10" pointer-events="stroke"/><path d="M 60 180 L 100 260" fill="none" stroke="rgb(0, 0, 0)" stroke-width="0.5" stroke-miterlimit="10" pointer-events="stroke"/><ellipse cx="20" cy="260" rx="20" ry="20" fill="rgb(255, 255, 255)" stroke="rgb(0, 0, 0)" stroke-width="0.5" pointer-events="all"/><ellipse cx="60" cy="180" rx="20" ry="20" fill="rgb(255, 255, 255)" stroke="rgb(0, 0, 0)" stroke-width="0.5" pointer-events="all"/><ellipse cx="140" cy="100" rx="20" ry="20" fill="rgb(255, 255, 255)" stroke="rgb(0, 0, 0)" stroke-width="0.5" pointer-events="all"/><ellipse cx="100" cy="260" rx="20" ry="20" fill="rgb(255, 255, 255)" stroke="rgb(0, 0, 0)" stroke-width="0.5" pointer-events="all"/><ellipse cx="180" cy="260" rx="20" ry="20" fill="rgb(255, 255, 255)" stroke="rgb(0, 0, 0)" stroke-width="0.5" pointer-events="all"/><ellipse cx="260" cy="260" rx="20" ry="20" fill="rgb(255, 255, 255)" stroke="rgb(0, 0, 0)" stroke-width="0.5" pointer-events="all"/><ellipse cx="220" cy="180" rx="20" ry="20" fill="rgb(255, 255, 255)" stroke="rgb(0, 0, 0)" stroke-width="0.5" pointer-events="all"/><path d="M 380 180 L 460 100" fill="none" stroke="rgb(0, 0, 0)" stroke-width="0.5" stroke-miterlimit="10" pointer-events="stroke"/><path d="M 540 180 L 460 100" fill="none" stroke="rgb(0, 0, 0)" stroke-width="0.5" stroke-miterlimit="10" pointer-events="stroke"/><path d="M 340 260 L 380 180" fill="none" stroke="rgb(0, 0, 0)" stroke-width="0.5" stroke-miterlimit="10" pointer-events="stroke"/><path d="M 500 260 L 540 180" fill="none" stroke="rgb(0, 0, 0)" stroke-width="0.5" stroke-miterlimit="10" pointer-events="stroke"/><path d="M 540 180 L 580 260" fill="none" stroke="rgb(0, 0, 0)" stroke-width="0.5" stroke-miterlimit="10" pointer-events="stroke"/><path d="M 380 180 L 420 260" fill="none" stroke="rgb(0, 0, 0)" stroke-width="0.5" stroke-miterlimit="10" pointer-events="stroke"/><ellipse cx="340" cy="260" rx="20" ry="20" fill="rgb(255, 255, 255)" stroke="rgb(0, 0, 0)" stroke-width="0.5" pointer-events="all"/><ellipse cx="380" cy="180" rx="20" ry="20" fill="rgb(255, 255, 255)" stroke="rgb(0, 0, 0)" stroke-width="0.5" pointer-events="all"/><ellipse cx="420" cy="260" rx="20" ry="20" fill="rgb(255, 255, 255)" stroke="rgb(0, 0, 0)" stroke-width="0.5" pointer-events="all"/><ellipse cx="500" cy="260" rx="20" ry="20" fill="rgb(255, 255, 255)" stroke="rgb(0, 0, 0)" stroke-width="0.5" pointer-events="all"/><ellipse cx="580" cy="260" rx="20" ry="20" fill="rgb(255, 255, 255)" stroke="rgb(0, 0, 0)" stroke-width="0.5" pointer-events="all"/><ellipse cx="540" cy="180" rx="20" ry="20" fill="rgb(255, 255, 255)" stroke="rgb(0, 0, 0)" stroke-width="0.5" pointer-events="all"/><path d="M 300 20 L 460 100" fill="none" stroke="rgb(0, 0, 0)" stroke-width="0.5" stroke-miterlimit="10" pointer-events="stroke"/><ellipse cx="460" cy="100" rx="20" ry="20" fill="rgb(255, 255, 255)" stroke="rgb(0, 0, 0)" stroke-width="0.5" pointer-events="all"/><ellipse cx="300" cy="20" rx="20" ry="20" fill="rgb(255, 255, 255)" stroke="rgb(0, 0, 0)" stroke-width="0.5" pointer-events="all"/></g></svg>