<?xml version="1.0" encoding="UTF-8"?>
<!DOCTYPE svg PUBLIC "-//W3C//DTD SVG 1.1//EN" "http://www.w3.org/Graphics/SVG/1.1/DTD/svg11.dtd">
<svg xmlns="http://www.w3.org/2000/svg" xmlns:xlink="http://www.w3.org/1999/xlink" version="1.1" width="441px" height="58px" viewBox="-0.5 -0.5 441 58"><defs/><g><rect x="0" y="0" width="20" height="20" fill="none" stroke="rgb(0, 0, 0)" stroke-width="0.5" pointer-events="all"/><g fill="rgb(0, 0, 0)" font-family="Courier New" text-anchor="middle" font-size="10px"><text x="9.5" y="13.5">8</text></g><rect x="20" y="0" width="20" height="20" fill="none" stroke="rgb(0, 0, 0)" stroke-width="0.5" pointer-events="all"/><rect x="80" y="0" width="20" height="20" fill="none" stroke="rgb(0, 0, 0)" stroke-width="0.5" pointer-events="all"/><g fill="rgb(0, 0, 0)" font-family="Courier New" text-anchor="middle" font-size="10px"><text x="89.5" y="13.5">4</text></g><rect x="100" y="0" width="20" height="20" fill="none" stroke="rgb(0, 0, 0)" stroke-width="0.5" pointer-events="all"/><rect x="160" y="0" width="20" height="20" fill="none" stroke="rgb(0, 0, 0)" stroke-width="0.5" pointer-events="all"/><g fill="rgb(0, 0, 0)" font-family="Courier New" text-anchor="middle" font-size="10px"><text x="169.5" y="13.5">1</text></g><rect x="180" y="0" width="20" height="20" fill="none" stroke="rgb(0, 0, 0)" stroke-width="0.5" pointer-events="all"/><rect x="240" y="0" width="20" height="20" fill="none" stroke="rgb(0, 0, 0)" stroke-width="0.5" pointer-events="all"/><g fill="rgb(0, 0, 0)" font-family="Courier New" text-anchor="middle" font-size="10px"><text x="249.5" y="13.5">7</text></g><rect x="260" y="0" width="20" height="20" fill="none" stroke="rgb(0, 0, 0)" stroke-width="0.5" pointer-events="all"/><path d="M 32 9.77 L 69.94 9.77" fill="none" stroke="rgb(0, 0, 0)" stroke-width="0.5" stroke-miterlimit="10" pointer-events="stroke"/><ellipse cx="30" cy="9.77" rx="2" ry="2" fill="rgb(0, 0, 0)" stroke="rgb(0, 0, 0)" stroke-width="0.5" pointer-events="all"/><path d="M 74.44 9.77 L 69.94 12.02 L 69.94 7.52 Z" fill="rgb(0, 0, 0)" stroke="rgb(0, 0, 0)" stroke-width="0.5" stroke-miterlimit="10" pointer-events="all"/><path d="M 112 9.83 L 149.94 9.83" fill="none" stroke="rgb(0, 0, 0)" stroke-width="0.5" stroke-miterlimit="10" pointer-events="stroke"/><ellipse cx="110" cy="9.83" rx="2" ry="2" fill="rgb(0, 0, 0)" stroke="rgb(0, 0, 0)" stroke-width="0.5" pointer-events="all"/><path d="M 154.44 9.83 L 149.94 12.08 L 149.94 7.58 Z" fill="rgb(0, 0, 0)" stroke="rgb(0, 0, 0)" stroke-width="0.5" stroke-miterlimit="10" pointer-events="all"/><path d="M 192 9.83 L 229.94 9.83" fill="none" stroke="rgb(0, 0, 0)" stroke-width="0.5" stroke-miterlimit="10" pointer-events="stroke"/><ellipse cx="190" cy="9.83" rx="2" ry="2" fill="rgb(0, 0, 0)" stroke="rgb(0, 0, 0)" stroke-width="0.5" pointer-events="all"/><path d="M 234.44 9.83 L 229.94 12.08 L 229.94 7.58 Z" fill="rgb(0, 0, 0)" stroke="rgb(0, 0, 0)" stroke-width="0.5" stroke-miterlimit="10" pointer-events="all"/><path d="M 272 9.83 L 309.94 9.83" fill="none" stroke="rgb(0, 0, 0)" stroke-width="0.5" stroke-miterlimit="10" pointer-events="stroke"/><ellipse cx="270" cy="9.83" rx="2" ry="2" fill="rgb(0, 0, 0)" stroke="rgb(0, 0, 0)" stroke-width="0.5" pointer-events="all"/><path d="M 314.44 9.83 L 309.94 12.08 L 309.94 7.58 Z" fill="rgb(0, 0, 0)" stroke="rgb(0, 0, 0)" stroke-width="0.5" stroke-miterlimit="10" pointer-events="all"/><rect x="320" y="0" width="20" height="20" fill="none" stroke="rgb(0, 0, 0)" stroke-width="0.5" pointer-events="all"/><g fill="rgb(0, 0, 0)" font-family="Courier New" text-anchor="middle" font-size="10px"><text x="329.5" y="13.5">3</text></g><rect x="340" y="0" width="20" height="20" fill="none" stroke="rgb(0, 0, 0)" stroke-width="0.5" pointer-events="all"/><path d="M 352 9.83 L 389.94 9.83" fill="none" stroke="rgb(0, 0, 0)" stroke-width="0.5" stroke-miterlimit="10" pointer-events="stroke"/><ellipse cx="350" cy="9.83" rx="2" ry="2" fill="rgb(0, 0, 0)" stroke="rgb(0, 0, 0)" stroke-width="0.5" pointer-events="all"/><path d="M 394.44 9.83 L 389.94 12.08 L 389.94 7.58 Z" fill="rgb(0, 0, 0)" stroke="rgb(0, 0, 0)" stroke-width="0.5" stroke-miterlimit="10" pointer-events="all"/><rect x="400" y="0" width="20" height="20" fill="none" stroke="rgb(0, 0, 0)" stroke-width="0.5" pointer-events="all"/><g fill="rgb(0, 0, 0)" font-family="Courier New" text-anchor="middle" font-size="10px"><text x="409.5" y="13.5">6</text></g><rect x="420" y="0" width="20" height="20" fill="none" stroke="rgb(0, 0, 0)" stroke-width="0.5" pointer-events="all"/><path d="M 429.5 12 L 429.5 50 L 19.5 50 L 19.5 30.06" fill="none" stroke="rgb(0, 0, 0)" stroke-width="0.5" stroke-miterlimit="10" pointer-events="stroke"/><ellipse cx="429.5" cy="10" rx="2" ry="2" fill="rgb(0, 0, 0)" stroke="rgb(0, 0, 0)" stroke-width="0.5" pointer-events="all"/><path d="M 19.5 25.56 L 21.75 30.06 L 17.25 30.06 Z" fill="rgb(0, 0, 0)" stroke="rgb(0, 0, 0)" stroke-width="0.5" stroke-miterlimit="10" pointer-events="all"/></g></svg>