<?xml version="1.0" encoding="UTF-8"?>
<!DOCTYPE svg PUBLIC "-//W3C//DTD SVG 1.1//EN" "http://www.w3.org/Graphics/SVG/1.1/DTD/svg11.dtd">
<svg xmlns="http://www.w3.org/2000/svg" xmlns:xlink="http://www.w3.org/1999/xlink" version="1.1" width="209px" height="181px" viewBox="-0.5 -0.5 209 181"><defs/><g><ellipse cx="15" cy="55" rx="5" ry="5" fill="none" stroke="rgb(0, 0, 0)" stroke-width="0.5" pointer-events="all"/><ellipse cx="15" cy="95" rx="5" ry="5" fill="none" stroke="rgb(0, 0, 0)" stroke-width="0.5" pointer-events="all"/><ellipse cx="15" cy="135" rx="5" ry="5" fill="none" stroke="rgb(0, 0, 0)" stroke-width="0.5" pointer-events="all"/><ellipse cx="15" cy="175" rx="5" ry="5" fill="none" stroke="rgb(0, 0, 0)" stroke-width="0.5" pointer-events="all"/><ellipse cx="75" cy="55" rx="5" ry="5" fill="none" stroke="rgb(0, 0, 0)" stroke-width="0.5" pointer-events="all"/><ellipse cx="75" cy="95" rx="5" ry="5" fill="none" stroke="rgb(0, 0, 0)" stroke-width="0.5" pointer-events="all"/><ellipse cx="75" cy="135" rx="5" ry="5" fill="none" stroke="rgb(0, 0, 0)" stroke-width="0.5" pointer-events="all"/><ellipse cx="75" cy="175" rx="5" ry="5" fill="none" stroke="rgb(0, 0, 0)" stroke-width="0.5" pointer-events="all"/><path d="M 20 55 L 65.94 55" fill="none" stroke="rgb(0, 0, 0)" stroke-width="0.5" stroke-miterlimit="10" pointer-events="stroke"/><path d="M 69.44 55 L 65.94 56.75 L 65.94 53.25 Z" fill="rgb(0, 0, 0)" stroke="rgb(0, 0, 0)" stroke-width="0.5" stroke-miterlimit="10" pointer-events="all"/><path d="M 19.16 57.77 L 67.46 89.97" fill="none" stroke="rgb(0, 0, 0)" stroke-width="0.5" stroke-miterlimit="10" pointer-events="stroke"/><path d="M 70.37 91.92 L 66.49 91.43 L 68.43 88.52 Z" fill="rgb(0, 0, 0)" stroke="rgb(0, 0, 0)" stroke-width="0.5" stroke-miterlimit="10" pointer-events="all"/><path d="M 19.15 97.78 L 67.45 129.99" fill="none" stroke="rgb(0, 0, 0)" stroke-width="0.5" stroke-miterlimit="10" pointer-events="stroke"/><path d="M 70.37 131.93 L 66.48 131.44 L 68.42 128.53 Z" fill="rgb(0, 0, 0)" stroke="rgb(0, 0, 0)" stroke-width="0.5" stroke-miterlimit="10" pointer-events="all"/><path d="M 19.16 137.77 L 67.46 169.97" fill="none" stroke="rgb(0, 0, 0)" stroke-width="0.5" stroke-miterlimit="10" pointer-events="stroke"/><path d="M 70.37 171.92 L 66.49 171.43 L 68.43 168.52 Z" fill="rgb(0, 0, 0)" stroke="rgb(0, 0, 0)" stroke-width="0.5" stroke-miterlimit="10" pointer-events="all"/><path d="M 19.16 172.23 L 67.46 140.03" fill="none" stroke="rgb(0, 0, 0)" stroke-width="0.5" stroke-miterlimit="10" pointer-events="stroke"/><path d="M 70.37 138.08 L 68.43 141.48 L 66.49 138.57 Z" fill="rgb(0, 0, 0)" stroke="rgb(0, 0, 0)" stroke-width="0.5" stroke-miterlimit="10" pointer-events="all"/><rect x="0" y="0" width="30" height="30" fill="none" stroke="none" pointer-events="all"/><g fill="rgb(0, 0, 0)" font-family="Courier New" text-anchor="middle" font-size="12px"><text x="14.5" y="19.5">A</text></g><rect x="62.5" y="0" width="25" height="30" fill="none" stroke="none" pointer-events="all"/><g fill="rgb(0, 0, 0)" font-family="Courier New" text-anchor="middle" font-size="10px"><text x="74.5" y="18.5">B</text></g><ellipse cx="135" cy="55" rx="5" ry="5" fill="none" stroke="rgb(0, 0, 0)" stroke-width="0.5" pointer-events="all"/><ellipse cx="135" cy="95" rx="5" ry="5" fill="none" stroke="rgb(0, 0, 0)" stroke-width="0.5" pointer-events="all"/><ellipse cx="135" cy="135" rx="5" ry="5" fill="none" stroke="rgb(0, 0, 0)" stroke-width="0.5" pointer-events="all"/><ellipse cx="135" cy="175" rx="5" ry="5" fill="none" stroke="rgb(0, 0, 0)" stroke-width="0.5" pointer-events="all"/><ellipse cx="195" cy="55" rx="5" ry="5" fill="none" stroke="rgb(0, 0, 0)" stroke-width="0.5" pointer-events="all"/><ellipse cx="195" cy="95" rx="5" ry="5" fill="none" stroke="rgb(0, 0, 0)" stroke-width="0.5" pointer-events="all"/><ellipse cx="195" cy="135" rx="5" ry="5" fill="none" stroke="rgb(0, 0, 0)" stroke-width="0.5" pointer-events="all"/><ellipse cx="195" cy="175" rx="5" ry="5" fill="none" stroke="rgb(0, 0, 0)" stroke-width="0.5" pointer-events="all"/><path d="M 139.16 57.77 L 187.46 89.97" fill="none" stroke="rgb(0, 0, 0)" stroke-width="0.5" stroke-miterlimit="10" pointer-events="stroke"/><path d="M 190.37 91.92 L 186.49 91.43 L 188.43 88.52 Z" fill="rgb(0, 0, 0)" stroke="rgb(0, 0, 0)" stroke-width="0.5" stroke-miterlimit="10" pointer-events="all"/><rect x="120" y="0" width="30" height="30" fill="none" stroke="none" pointer-events="all"/><g fill="rgb(0, 0, 0)" font-family="Courier New" text-anchor="middle" font-size="12px"><text x="134.5" y="19.5">A</text></g><rect x="182.5" y="0" width="25" height="30" fill="none" stroke="none" pointer-events="all"/><g fill="rgb(0, 0, 0)" font-family="Courier New" text-anchor="middle" font-size="10px"><text x="194.5" y="18.5">B</text></g><path d="M 140 134.89 L 185.94 134.89" fill="none" stroke="rgb(0, 0, 0)" stroke-width="0.5" stroke-miterlimit="10" pointer-events="stroke"/><path d="M 189.44 134.89 L 185.94 136.64 L 185.94 133.14 Z" fill="rgb(0, 0, 0)" stroke="rgb(0, 0, 0)" stroke-width="0.5" stroke-miterlimit="10" pointer-events="all"/><path d="M 139.16 92.23 L 187.46 60.03" fill="none" stroke="rgb(0, 0, 0)" stroke-width="0.5" stroke-miterlimit="10" pointer-events="stroke"/><path d="M 190.37 58.08 L 188.43 61.48 L 186.49 58.57 Z" fill="rgb(0, 0, 0)" stroke="rgb(0, 0, 0)" stroke-width="0.5" stroke-miterlimit="10" pointer-events="all"/></g></svg>