<?xml version="1.0" encoding="UTF-8"?>
<!DOCTYPE svg PUBLIC "-//W3C//DTD SVG 1.1//EN" "http://www.w3.org/Graphics/SVG/1.1/DTD/svg11.dtd">
<svg xmlns="http://www.w3.org/2000/svg" xmlns:xlink="http://www.w3.org/1999/xlink" version="1.1" width="211px" height="391px" viewBox="-0.5 -0.5 211 391"><defs/><g><rect x="10" y="300" width="50" height="30" fill="none" stroke="rgb(0, 0, 0)" stroke-width="0.5" pointer-events="none"/><rect x="15" y="305" width="20" height="20" fill="none" stroke="rgb(0, 0, 0)" stroke-width="0.5" pointer-events="none"/><rect x="35" y="305" width="20" height="20" fill="none" stroke="rgb(0, 0, 0)" stroke-width="0.5" pointer-events="none"/><path d="M 24.48 316.73 L 24.94 354.94" fill="none" stroke="rgb(0, 0, 0)" stroke-width="0.5" stroke-miterlimit="10" pointer-events="none"/><ellipse cx="24.46" cy="314.73" rx="2" ry="2" fill="rgb(0, 0, 0)" stroke="rgb(0, 0, 0)" stroke-width="0.5" pointer-events="none"/><path d="M 24.99 359.44 L 22.69 354.97 L 27.19 354.91 Z" fill="rgb(0, 0, 0)" stroke="rgb(0, 0, 0)" stroke-width="0.5" stroke-miterlimit="10" pointer-events="none"/><path d="M 47 315 L 185 315 L 185 354.94" fill="none" stroke="rgb(0, 0, 0)" stroke-width="0.5" stroke-miterlimit="10" pointer-events="none"/><ellipse cx="45" cy="315" rx="2" ry="2" fill="rgb(0, 0, 0)" stroke="rgb(0, 0, 0)" stroke-width="0.5" pointer-events="none"/><path d="M 185 359.44 L 182.75 354.94 L 187.25 354.94 Z" fill="rgb(0, 0, 0)" stroke="rgb(0, 0, 0)" stroke-width="0.5" stroke-miterlimit="10" pointer-events="none"/><rect x="80" y="360" width="50" height="30" fill="none" stroke="rgb(0, 0, 0)" stroke-width="0.5" pointer-events="none"/><rect x="0" y="360" width="50" height="30" fill="none" stroke="rgb(0, 0, 0)" stroke-width="0.5" pointer-events="none"/><rect x="5" y="365" width="20" height="20" fill="none" stroke="rgb(0, 0, 0)" stroke-width="0.5" pointer-events="none"/><g fill="rgb(0, 0, 0)" font-family="Courier New" pointer-events="none" text-anchor="middle" font-size="10px"><text x="14.5" y="378.5">5</text></g><rect x="25" y="365" width="20" height="20" fill="none" stroke="rgb(0, 0, 0)" stroke-width="0.5" pointer-events="none"/><rect x="85" y="365" width="20" height="20" fill="none" stroke="rgb(0, 0, 0)" stroke-width="0.5" pointer-events="none"/><g fill="rgb(0, 0, 0)" font-family="Courier New" pointer-events="none" text-anchor="middle" font-size="10px"><text x="94.5" y="378.5">8</text></g><rect x="105" y="365" width="20" height="20" fill="none" stroke="rgb(0, 0, 0)" stroke-width="0.5" pointer-events="none"/><path d="M 37 374.77 L 74.94 374.77" fill="none" stroke="rgb(0, 0, 0)" stroke-width="0.5" stroke-miterlimit="10" pointer-events="none"/><ellipse cx="35" cy="374.77" rx="2" ry="2" fill="rgb(0, 0, 0)" stroke="rgb(0, 0, 0)" stroke-width="0.5" pointer-events="none"/><path d="M 79.44 374.77 L 74.94 377.02 L 74.94 372.52 Z" fill="rgb(0, 0, 0)" stroke="rgb(0, 0, 0)" stroke-width="0.5" stroke-miterlimit="10" pointer-events="none"/><path d="M 117 374.83 L 154.94 374.83" fill="none" stroke="rgb(0, 0, 0)" stroke-width="0.5" stroke-miterlimit="10" pointer-events="none"/><ellipse cx="115" cy="374.83" rx="2" ry="2" fill="rgb(0, 0, 0)" stroke="rgb(0, 0, 0)" stroke-width="0.5" pointer-events="none"/><path d="M 159.44 374.83 L 154.94 377.08 L 154.94 372.58 Z" fill="rgb(0, 0, 0)" stroke="rgb(0, 0, 0)" stroke-width="0.5" stroke-miterlimit="10" pointer-events="none"/><rect x="160" y="360" width="50" height="30" fill="none" stroke="rgb(0, 0, 0)" stroke-width="0.5" pointer-events="none"/><rect x="165" y="365" width="20" height="20" fill="none" stroke="rgb(0, 0, 0)" stroke-width="0.5" pointer-events="none"/><g fill="rgb(0, 0, 0)" font-family="Courier New" pointer-events="none" text-anchor="middle" font-size="10px"><text x="174.5" y="378.5">6</text></g><rect x="185" y="365" width="20" height="20" fill="none" stroke="rgb(0, 0, 0)" stroke-width="0.5" pointer-events="none"/><path d="M 185 385 L 205 365" fill="none" stroke="rgb(0, 0, 0)" stroke-width="0.5" stroke-miterlimit="10" pointer-events="none"/><path d="M 205 385 L 185 365" fill="none" stroke="rgb(0, 0, 0)" stroke-width="0.5" stroke-miterlimit="10" pointer-events="none"/><rect x="10" y="180" width="50" height="30" fill="none" stroke="rgb(0, 0, 0)" stroke-width="0.5" pointer-events="none"/><rect x="15" y="185" width="20" height="20" fill="none" stroke="rgb(0, 0, 0)" stroke-width="0.5" pointer-events="none"/><rect x="35" y="185" width="20" height="20" fill="none" stroke="rgb(0, 0, 0)" stroke-width="0.5" pointer-events="none"/><path d="M 24.48 196.73 L 24.94 234.94" fill="none" stroke="rgb(0, 0, 0)" stroke-width="0.5" stroke-miterlimit="10" pointer-events="none"/><ellipse cx="24.46" cy="194.73" rx="2" ry="2" fill="rgb(0, 0, 0)" stroke="rgb(0, 0, 0)" stroke-width="0.5" pointer-events="none"/><path d="M 24.99 239.44 L 22.69 234.97 L 27.19 234.91 Z" fill="rgb(0, 0, 0)" stroke="rgb(0, 0, 0)" stroke-width="0.5" stroke-miterlimit="10" pointer-events="none"/><path d="M 47 194.75 L 105 194.75 L 105 234.94" fill="none" stroke="rgb(0, 0, 0)" stroke-width="0.5" stroke-miterlimit="10" pointer-events="none"/><ellipse cx="45" cy="194.75" rx="2" ry="2" fill="rgb(0, 0, 0)" stroke="rgb(0, 0, 0)" stroke-width="0.5" pointer-events="none"/><path d="M 105 239.44 L 102.75 234.94 L 107.25 234.94 Z" fill="rgb(0, 0, 0)" stroke="rgb(0, 0, 0)" stroke-width="0.5" stroke-miterlimit="10" pointer-events="none"/><rect x="80" y="240" width="50" height="30" fill="none" stroke="rgb(0, 0, 0)" stroke-width="0.5" pointer-events="none"/><rect x="0" y="240" width="50" height="30" fill="none" stroke="rgb(0, 0, 0)" stroke-width="0.5" pointer-events="none"/><rect x="5" y="245" width="20" height="20" fill="none" stroke="rgb(0, 0, 0)" stroke-width="0.5" pointer-events="none"/><g fill="rgb(0, 0, 0)" font-family="Courier New" pointer-events="none" text-anchor="middle" font-size="10px"><text x="14.5" y="258.5">8</text></g><rect x="25" y="245" width="20" height="20" fill="none" stroke="rgb(0, 0, 0)" stroke-width="0.5" pointer-events="none"/><rect x="85" y="245" width="20" height="20" fill="none" stroke="rgb(0, 0, 0)" stroke-width="0.5" pointer-events="none"/><g fill="rgb(0, 0, 0)" font-family="Courier New" pointer-events="none" text-anchor="middle" font-size="10px"><text x="94.5" y="258.5">6</text></g><rect x="105" y="245" width="20" height="20" fill="none" stroke="rgb(0, 0, 0)" stroke-width="0.5" pointer-events="none"/><path d="M 37 254.77 L 74.94 254.77" fill="none" stroke="rgb(0, 0, 0)" stroke-width="0.5" stroke-miterlimit="10" pointer-events="none"/><ellipse cx="35" cy="254.77" rx="2" ry="2" fill="rgb(0, 0, 0)" stroke="rgb(0, 0, 0)" stroke-width="0.5" pointer-events="none"/><path d="M 79.44 254.77 L 74.94 257.02 L 74.94 252.52 Z" fill="rgb(0, 0, 0)" stroke="rgb(0, 0, 0)" stroke-width="0.5" stroke-miterlimit="10" pointer-events="none"/><path d="M 105 265 L 125 245" fill="none" stroke="rgb(0, 0, 0)" stroke-width="0.5" stroke-miterlimit="10" pointer-events="none"/><path d="M 125 265 L 105 245" fill="none" stroke="rgb(0, 0, 0)" stroke-width="0.5" stroke-miterlimit="10" pointer-events="none"/><rect x="10" y="60" width="50" height="30" fill="none" stroke="rgb(0, 0, 0)" stroke-width="0.5" pointer-events="none"/><rect x="15" y="65" width="20" height="20" fill="none" stroke="rgb(0, 0, 0)" stroke-width="0.5" pointer-events="none"/><rect x="35" y="65" width="20" height="20" fill="none" stroke="rgb(0, 0, 0)" stroke-width="0.5" pointer-events="none"/><path d="M 24.48 76.73 L 24.94 114.94" fill="none" stroke="rgb(0, 0, 0)" stroke-width="0.5" stroke-miterlimit="10" pointer-events="none"/><ellipse cx="24.46" cy="74.73" rx="2" ry="2" fill="rgb(0, 0, 0)" stroke="rgb(0, 0, 0)" stroke-width="0.5" pointer-events="none"/><path d="M 24.99 119.44 L 22.69 114.97 L 27.19 114.91 Z" fill="rgb(0, 0, 0)" stroke="rgb(0, 0, 0)" stroke-width="0.5" stroke-miterlimit="10" pointer-events="none"/><path d="M 45 76.75 L 45 100 L 25 100 L 25 114.94" fill="none" stroke="rgb(0, 0, 0)" stroke-width="0.5" stroke-miterlimit="10" pointer-events="none"/><ellipse cx="45" cy="74.75" rx="2" ry="2" fill="rgb(0, 0, 0)" stroke="rgb(0, 0, 0)" stroke-width="0.5" pointer-events="none"/><path d="M 25 119.44 L 22.75 114.94 L 27.25 114.94 Z" fill="rgb(0, 0, 0)" stroke="rgb(0, 0, 0)" stroke-width="0.5" stroke-miterlimit="10" pointer-events="none"/><rect x="0" y="120" width="50" height="30" fill="none" stroke="rgb(0, 0, 0)" stroke-width="0.5" pointer-events="none"/><rect x="5" y="125" width="20" height="20" fill="none" stroke="rgb(0, 0, 0)" stroke-width="0.5" pointer-events="none"/><g fill="rgb(0, 0, 0)" font-family="Courier New" pointer-events="none" text-anchor="middle" font-size="10px"><text x="14.5" y="138.5">6</text></g><rect x="25" y="125" width="20" height="20" fill="none" stroke="rgb(0, 0, 0)" stroke-width="0.5" pointer-events="none"/><path d="M 25 145 L 45 125" fill="none" stroke="rgb(0, 0, 0)" stroke-width="0.5" stroke-miterlimit="10" pointer-events="none"/><path d="M 45 145 L 25 125" fill="none" stroke="rgb(0, 0, 0)" stroke-width="0.5" stroke-miterlimit="10" pointer-events="none"/><rect x="10" y="0" width="50" height="30" fill="none" stroke="rgb(0, 0, 0)" stroke-width="0.5" pointer-events="none"/><rect x="15" y="5" width="20" height="20" fill="none" stroke="rgb(0, 0, 0)" stroke-width="0.5" pointer-events="none"/><rect x="35" y="5" width="20" height="20" fill="none" stroke="rgb(0, 0, 0)" stroke-width="0.5" pointer-events="none"/><path d="M 15 25 L 35 5" fill="none" stroke="rgb(0, 0, 0)" stroke-width="0.5" stroke-miterlimit="10" pointer-events="none"/><path d="M 35 25 L 15 5" fill="none" stroke="rgb(0, 0, 0)" stroke-width="0.5" stroke-miterlimit="10" pointer-events="none"/><path d="M 35 25 L 55 5" fill="none" stroke="rgb(0, 0, 0)" stroke-width="0.5" stroke-miterlimit="10" pointer-events="none"/><path d="M 55 25 L 35 5" fill="none" stroke="rgb(0, 0, 0)" stroke-width="0.5" stroke-miterlimit="10" pointer-events="none"/></g></svg>