<?xml version="1.0" encoding="UTF-8"?>
<!DOCTYPE svg PUBLIC "-//W3C//DTD SVG 1.1//EN" "http://www.w3.org/Graphics/SVG/1.1/DTD/svg11.dtd">
<svg xmlns="http://www.w3.org/2000/svg" xmlns:xlink="http://www.w3.org/1999/xlink" version="1.1" width="254px" height="181px" viewBox="-0.5 -0.5 254 181"><defs/><g><rect x="26" y="40" width="20" height="20" fill="none" stroke="rgb(0, 0, 0)" stroke-width="0.5" pointer-events="all"/><g fill="rgb(0, 0, 0)" font-family="Courier New" text-anchor="middle" font-size="10px"><text x="35.5" y="53.5">1</text></g><rect x="46" y="40" width="20" height="20" fill="none" stroke="rgb(0, 0, 0)" stroke-width="0.5" pointer-events="all"/><g fill="rgb(0, 0, 0)" font-family="Courier New" text-anchor="middle" font-size="10px"><text x="55.5" y="53.5">5</text></g><rect x="66" y="40" width="20" height="20" fill="none" stroke="rgb(0, 0, 0)" stroke-width="0.5" pointer-events="all"/><g fill="rgb(0, 0, 0)" font-family="Courier New" text-anchor="middle" font-size="10px"><text x="75.5" y="53.5">3</text></g><rect x="86" y="40" width="20" height="20" fill="none" stroke="rgb(0, 0, 0)" stroke-width="0.5" pointer-events="all"/><rect x="106" y="40" width="20" height="20" fill="none" stroke="rgb(0, 0, 0)" stroke-width="0.5" pointer-events="all"/><rect x="126" y="40" width="20" height="20" fill="none" stroke="rgb(0, 0, 0)" stroke-width="0.5" pointer-events="all"/><rect x="146" y="40" width="20" height="20" fill="none" stroke="rgb(0, 0, 0)" stroke-width="0.5" pointer-events="all"/><rect x="166" y="40" width="20" height="20" fill="none" stroke="rgb(0, 0, 0)" stroke-width="0.5" pointer-events="all"/><rect x="26" y="0" width="20" height="20" fill="none" stroke="rgb(0, 0, 0)" stroke-width="0.5" pointer-events="all"/><rect x="66" y="0" width="20" height="20" fill="none" stroke="rgb(0, 0, 0)" stroke-width="0.5" pointer-events="all"/><g fill="rgb(0, 0, 0)" font-family="Courier New" text-anchor="middle" font-size="10px"><text x="75.5" y="13.5">3</text></g><path d="M 34 9.78 L 6 10 L 6 50 L 15.94 50" fill="none" stroke="rgb(0, 0, 0)" stroke-width="0.5" stroke-miterlimit="10" pointer-events="stroke"/><ellipse cx="36" cy="9.76" rx="2" ry="2" fill="rgb(0, 0, 0)" stroke="rgb(0, 0, 0)" stroke-width="0.5" pointer-events="all"/><path d="M 20.44 50 L 15.94 52.25 L 15.94 47.75 Z" fill="rgb(0, 0, 0)" stroke="rgb(0, 0, 0)" stroke-width="0.5" stroke-miterlimit="10" pointer-events="all"/><rect x="46" y="0" width="20" height="20" fill="none" stroke="rgb(0, 0, 0)" stroke-width="0.5" pointer-events="all"/><g fill="rgb(0, 0, 0)" font-family="Courier New" text-anchor="middle" font-size="10px"><text x="55.5" y="13.5">8</text></g><rect x="26" y="160" width="20" height="20" fill="none" stroke="rgb(0, 0, 0)" stroke-width="0.5" pointer-events="all"/><g fill="rgb(0, 0, 0)" font-family="Courier New" text-anchor="middle" font-size="10px"><text x="35.5" y="173.5">1</text></g><rect x="46" y="160" width="20" height="20" fill="none" stroke="rgb(0, 0, 0)" stroke-width="0.5" pointer-events="all"/><g fill="rgb(0, 0, 0)" font-family="Courier New" text-anchor="middle" font-size="10px"><text x="55.5" y="173.5">5</text></g><rect x="66" y="160" width="20" height="20" fill="none" stroke="rgb(0, 0, 0)" stroke-width="0.5" pointer-events="all"/><g fill="rgb(0, 0, 0)" font-family="Courier New" text-anchor="middle" font-size="10px"><text x="75.5" y="173.5">3</text></g><rect x="86" y="160" width="20" height="20" fill="none" stroke="rgb(0, 0, 0)" stroke-width="0.5" pointer-events="all"/><g fill="rgb(0, 0, 0)" font-family="Courier New" text-anchor="middle" font-size="10px"><text x="95.5" y="173.5">7</text></g><rect x="106" y="160" width="20" height="20" fill="none" stroke="rgb(0, 0, 0)" stroke-width="0.5" pointer-events="all"/><rect x="126" y="160" width="20" height="20" fill="none" stroke="rgb(0, 0, 0)" stroke-width="0.5" pointer-events="all"/><rect x="146" y="160" width="20" height="20" fill="none" stroke="rgb(0, 0, 0)" stroke-width="0.5" pointer-events="all"/><rect x="166" y="160" width="20" height="20" fill="none" stroke="rgb(0, 0, 0)" stroke-width="0.5" pointer-events="all"/><rect x="26" y="120" width="20" height="20" fill="none" stroke="rgb(0, 0, 0)" stroke-width="0.5" pointer-events="all"/><rect x="66" y="120" width="20" height="20" fill="none" stroke="rgb(0, 0, 0)" stroke-width="0.5" pointer-events="all"/><g fill="rgb(0, 0, 0)" font-family="Courier New" text-anchor="middle" font-size="10px"><text x="75.5" y="133.5">4</text></g><path d="M 34 129.78 L 6 130 L 6 170 L 15.94 170" fill="none" stroke="rgb(0, 0, 0)" stroke-width="0.5" stroke-miterlimit="10" pointer-events="stroke"/><ellipse cx="36" cy="129.76" rx="2" ry="2" fill="rgb(0, 0, 0)" stroke="rgb(0, 0, 0)" stroke-width="0.5" pointer-events="all"/><path d="M 20.44 170 L 15.94 172.25 L 15.94 167.75 Z" fill="rgb(0, 0, 0)" stroke="rgb(0, 0, 0)" stroke-width="0.5" stroke-miterlimit="10" pointer-events="all"/><rect x="46" y="120" width="20" height="20" fill="none" stroke="rgb(0, 0, 0)" stroke-width="0.5" pointer-events="all"/><g fill="rgb(0, 0, 0)" font-family="Courier New" text-anchor="middle" font-size="10px"><text x="55.5" y="133.5">8</text></g><path d="M 211.06 20 L 246 20 L 246 140 L 211.06 140" fill="none" stroke="rgb(0, 0, 0)" stroke-width="0.5" stroke-miterlimit="10" stroke-dasharray="1.5 1.5" pointer-events="stroke"/><path d="M 206.56 20 L 211.06 17.75 L 211.06 22.25 Z" fill="rgb(0, 0, 0)" stroke="rgb(0, 0, 0)" stroke-width="0.5" stroke-miterlimit="10" pointer-events="all"/><path d="M 206.56 140 L 211.06 137.75 L 211.06 142.25 Z" fill="rgb(0, 0, 0)" stroke="rgb(0, 0, 0)" stroke-width="0.5" stroke-miterlimit="10" pointer-events="all"/></g></svg>