<?xml version="1.0" encoding="UTF-8"?>
<!DOCTYPE svg PUBLIC "-//W3C//DTD SVG 1.1//EN" "http://www.w3.org/Graphics/SVG/1.1/DTD/svg11.dtd">
<svg xmlns="http://www.w3.org/2000/svg" xmlns:xlink="http://www.w3.org/1999/xlink" version="1.1" width="211px" height="391px" viewBox="-0.5 -0.5 211 391"><defs/><g><rect x="10" y="0" width="30" height="30" fill="none" stroke="rgb(0, 0, 0)" stroke-width="0.5" pointer-events="all"/><rect x="15" y="5" width="20" height="20" fill="none" stroke="rgb(0, 0, 0)" stroke-width="0.5" pointer-events="all"/><path d="M 24.48 16.73 L 24.94 54.94" fill="none" stroke="rgb(0, 0, 0)" stroke-width="0.5" stroke-miterlimit="10" pointer-events="stroke"/><ellipse cx="24.46" cy="14.73" rx="2" ry="2" fill="rgb(0, 0, 0)" stroke="rgb(0, 0, 0)" stroke-width="0.5" pointer-events="all"/><path d="M 24.99 59.44 L 22.69 54.97 L 27.19 54.91 Z" fill="rgb(0, 0, 0)" stroke="rgb(0, 0, 0)" stroke-width="0.5" stroke-miterlimit="10" pointer-events="all"/><rect x="80" y="60" width="50" height="30" fill="none" stroke="rgb(0, 0, 0)" stroke-width="0.5" pointer-events="all"/><rect x="0" y="60" width="50" height="30" fill="none" stroke="rgb(0, 0, 0)" stroke-width="0.5" pointer-events="all"/><rect x="5" y="65" width="20" height="20" fill="none" stroke="rgb(0, 0, 0)" stroke-width="0.5" pointer-events="all"/><g fill="rgb(0, 0, 0)" font-family="Courier New" text-anchor="middle" font-size="10px"><text x="14.5" y="78.5">9</text></g><rect x="25" y="65" width="20" height="20" fill="none" stroke="rgb(0, 0, 0)" stroke-width="0.5" pointer-events="all"/><rect x="85" y="65" width="20" height="20" fill="none" stroke="rgb(0, 0, 0)" stroke-width="0.5" pointer-events="all"/><g fill="rgb(0, 0, 0)" font-family="Courier New" text-anchor="middle" font-size="10px"><text x="94.5" y="78.5">2</text></g><rect x="105" y="65" width="20" height="20" fill="none" stroke="rgb(0, 0, 0)" stroke-width="0.5" pointer-events="all"/><path d="M 37 74.77 L 74.94 74.77" fill="none" stroke="rgb(0, 0, 0)" stroke-width="0.5" stroke-miterlimit="10" pointer-events="stroke"/><ellipse cx="35" cy="74.77" rx="2" ry="2" fill="rgb(0, 0, 0)" stroke="rgb(0, 0, 0)" stroke-width="0.5" pointer-events="all"/><path d="M 79.44 74.77 L 74.94 77.02 L 74.94 72.52 Z" fill="rgb(0, 0, 0)" stroke="rgb(0, 0, 0)" stroke-width="0.5" stroke-miterlimit="10" pointer-events="all"/><path d="M 117 74.83 L 154.94 74.83" fill="none" stroke="rgb(0, 0, 0)" stroke-width="0.5" stroke-miterlimit="10" pointer-events="stroke"/><ellipse cx="115" cy="74.83" rx="2" ry="2" fill="rgb(0, 0, 0)" stroke="rgb(0, 0, 0)" stroke-width="0.5" pointer-events="all"/><path d="M 159.44 74.83 L 154.94 77.08 L 154.94 72.58 Z" fill="rgb(0, 0, 0)" stroke="rgb(0, 0, 0)" stroke-width="0.5" stroke-miterlimit="10" pointer-events="all"/><rect x="160" y="60" width="50" height="30" fill="none" stroke="rgb(0, 0, 0)" stroke-width="0.5" pointer-events="all"/><rect x="165" y="65" width="20" height="20" fill="none" stroke="rgb(0, 0, 0)" stroke-width="0.5" pointer-events="all"/><g fill="rgb(0, 0, 0)" font-family="Courier New" text-anchor="middle" font-size="10px"><text x="174.5" y="78.5">7</text></g><rect x="185" y="65" width="20" height="20" fill="none" stroke="rgb(0, 0, 0)" stroke-width="0.5" pointer-events="all"/><path d="M 185 85 L 205 65" fill="none" stroke="rgb(0, 0, 0)" stroke-width="0.5" stroke-miterlimit="10" pointer-events="stroke"/><path d="M 205 85 L 185 65" fill="none" stroke="rgb(0, 0, 0)" stroke-width="0.5" stroke-miterlimit="10" pointer-events="stroke"/><rect x="10" y="120" width="30" height="30" fill="none" stroke="rgb(0, 0, 0)" stroke-width="0.5" pointer-events="all"/><rect x="15" y="125" width="20" height="20" fill="none" stroke="rgb(0, 0, 0)" stroke-width="0.5" pointer-events="all"/><path d="M 24.48 136.73 L 24.94 174.94" fill="none" stroke="rgb(0, 0, 0)" stroke-width="0.5" stroke-miterlimit="10" pointer-events="stroke"/><ellipse cx="24.46" cy="134.73" rx="2" ry="2" fill="rgb(0, 0, 0)" stroke="rgb(0, 0, 0)" stroke-width="0.5" pointer-events="all"/><path d="M 24.99 179.44 L 22.69 174.97 L 27.19 174.91 Z" fill="rgb(0, 0, 0)" stroke="rgb(0, 0, 0)" stroke-width="0.5" stroke-miterlimit="10" pointer-events="all"/><rect x="80" y="180" width="50" height="30" fill="none" stroke="rgb(0, 0, 0)" stroke-width="0.5" pointer-events="all"/><rect x="0" y="180" width="50" height="30" fill="none" stroke="rgb(0, 0, 0)" stroke-width="0.5" pointer-events="all"/><rect x="5" y="185" width="20" height="20" fill="none" stroke="rgb(0, 0, 0)" stroke-width="0.5" pointer-events="all"/><g fill="rgb(0, 0, 0)" font-family="Courier New" text-anchor="middle" font-size="10px"><text x="14.5" y="198.5">2</text></g><rect x="25" y="185" width="20" height="20" fill="none" stroke="rgb(0, 0, 0)" stroke-width="0.5" pointer-events="all"/><rect x="85" y="185" width="20" height="20" fill="none" stroke="rgb(0, 0, 0)" stroke-width="0.5" pointer-events="all"/><g fill="rgb(0, 0, 0)" font-family="Courier New" text-anchor="middle" font-size="10px"><text x="94.5" y="198.5">7</text></g><rect x="105" y="185" width="20" height="20" fill="none" stroke="rgb(0, 0, 0)" stroke-width="0.5" pointer-events="all"/><path d="M 37 194.77 L 74.94 194.77" fill="none" stroke="rgb(0, 0, 0)" stroke-width="0.5" stroke-miterlimit="10" pointer-events="stroke"/><ellipse cx="35" cy="194.77" rx="2" ry="2" fill="rgb(0, 0, 0)" stroke="rgb(0, 0, 0)" stroke-width="0.5" pointer-events="all"/><path d="M 79.44 194.77 L 74.94 197.02 L 74.94 192.52 Z" fill="rgb(0, 0, 0)" stroke="rgb(0, 0, 0)" stroke-width="0.5" stroke-miterlimit="10" pointer-events="all"/><path d="M 105 205 L 125 185" fill="none" stroke="rgb(0, 0, 0)" stroke-width="0.5" stroke-miterlimit="10" pointer-events="stroke"/><path d="M 125 205 L 105 185" fill="none" stroke="rgb(0, 0, 0)" stroke-width="0.5" stroke-miterlimit="10" pointer-events="stroke"/><rect x="10" y="240" width="30" height="30" fill="none" stroke="rgb(0, 0, 0)" stroke-width="0.5" pointer-events="all"/><rect x="15" y="245" width="20" height="20" fill="none" stroke="rgb(0, 0, 0)" stroke-width="0.5" pointer-events="all"/><path d="M 24.48 256.73 L 24.94 294.94" fill="none" stroke="rgb(0, 0, 0)" stroke-width="0.5" stroke-miterlimit="10" pointer-events="stroke"/><ellipse cx="24.46" cy="254.73" rx="2" ry="2" fill="rgb(0, 0, 0)" stroke="rgb(0, 0, 0)" stroke-width="0.5" pointer-events="all"/><path d="M 24.99 299.44 L 22.69 294.97 L 27.19 294.91 Z" fill="rgb(0, 0, 0)" stroke="rgb(0, 0, 0)" stroke-width="0.5" stroke-miterlimit="10" pointer-events="all"/><rect x="0" y="300" width="50" height="30" fill="none" stroke="rgb(0, 0, 0)" stroke-width="0.5" pointer-events="all"/><rect x="5" y="305" width="20" height="20" fill="none" stroke="rgb(0, 0, 0)" stroke-width="0.5" pointer-events="all"/><g fill="rgb(0, 0, 0)" font-family="Courier New" text-anchor="middle" font-size="10px"><text x="14.5" y="318.5">7</text></g><rect x="25" y="305" width="20" height="20" fill="none" stroke="rgb(0, 0, 0)" stroke-width="0.5" pointer-events="all"/><path d="M 25 325 L 45 305" fill="none" stroke="rgb(0, 0, 0)" stroke-width="0.5" stroke-miterlimit="10" pointer-events="stroke"/><path d="M 45 325 L 25 305" fill="none" stroke="rgb(0, 0, 0)" stroke-width="0.5" stroke-miterlimit="10" pointer-events="stroke"/><rect x="10" y="360" width="30" height="30" fill="none" stroke="rgb(0, 0, 0)" stroke-width="0.5" pointer-events="all"/><rect x="15" y="365" width="20" height="20" fill="none" stroke="rgb(0, 0, 0)" stroke-width="0.5" pointer-events="all"/><path d="M 15 385 L 35 365" fill="none" stroke="rgb(0, 0, 0)" stroke-width="0.5" stroke-miterlimit="10" pointer-events="stroke"/><path d="M 35 385 L 15 365" fill="none" stroke="rgb(0, 0, 0)" stroke-width="0.5" stroke-miterlimit="10" pointer-events="stroke"/></g></svg>