<?xml version="1.0" encoding="UTF-8"?>
<!DOCTYPE svg PUBLIC "-//W3C//DTD SVG 1.1//EN" "http://www.w3.org/Graphics/SVG/1.1/DTD/svg11.dtd">
<svg xmlns="http://www.w3.org/2000/svg" xmlns:xlink="http://www.w3.org/1999/xlink" version="1.1" width="206px" height="181px" viewBox="-0.5 -0.5 206 181"><defs/><g><rect x="45" y="120" width="20" height="20" fill="none" stroke="rgb(0, 0, 0)" stroke-width="0.5" pointer-events="all"/><g fill="rgb(0, 0, 0)" font-family="Courier New" text-anchor="middle" font-size="10px"><text x="54.5" y="133.5">9</text></g><rect x="65" y="120" width="20" height="20" fill="none" stroke="rgb(0, 0, 0)" stroke-width="0.5" pointer-events="all"/><g fill="rgb(0, 0, 0)" font-family="Courier New" text-anchor="middle" font-size="10px"><text x="74.5" y="133.5">6</text></g><rect x="85" y="120" width="20" height="20" fill="none" stroke="rgb(0, 0, 0)" stroke-width="0.5" pointer-events="all"/><g fill="rgb(0, 0, 0)" font-family="Courier New" text-anchor="middle" font-size="10px"><text x="94.5" y="133.5">2</text></g><rect x="105" y="120" width="20" height="20" fill="none" stroke="rgb(0, 0, 0)" stroke-width="0.5" pointer-events="all"/><g fill="rgb(0, 0, 0)" font-family="Courier New" text-anchor="middle" font-size="10px"><text x="114.5" y="133.5">5</text></g><rect x="125" y="120" width="20" height="20" fill="none" stroke="rgb(0, 0, 0)" stroke-width="0.5" stroke-dasharray="1.5 1.5" pointer-events="all"/><rect x="145" y="120" width="20" height="20" fill="none" stroke="rgb(0, 0, 0)" stroke-width="0.5" stroke-dasharray="1.5 1.5" pointer-events="all"/><rect x="165" y="120" width="20" height="20" fill="none" stroke="rgb(0, 0, 0)" stroke-width="0.5" stroke-dasharray="1.5 1.5" pointer-events="all"/><rect x="185" y="120" width="20" height="20" fill="none" stroke="rgb(0, 0, 0)" stroke-width="0.5" stroke-dasharray="1.5 1.5" pointer-events="all"/><rect x="45" y="40" width="20" height="20" fill="none" stroke="rgb(0, 0, 0)" stroke-width="0.5" pointer-events="all"/><g fill="rgb(0, 0, 0)" font-family="Courier New" text-anchor="middle" font-size="10px"><text x="54.5" y="53.5">9</text></g><rect x="65" y="40" width="20" height="20" fill="none" stroke="rgb(0, 0, 0)" stroke-width="0.5" pointer-events="all"/><g fill="rgb(0, 0, 0)" font-family="Courier New" text-anchor="middle" font-size="10px"><text x="74.5" y="53.5">6</text></g><rect x="85" y="40" width="20" height="20" fill="none" stroke="rgb(0, 0, 0)" stroke-width="0.5" stroke-dasharray="1.5 1.5" pointer-events="all"/><rect x="105" y="40" width="20" height="20" fill="none" stroke="rgb(0, 0, 0)" stroke-width="0.5" stroke-dasharray="1.5 1.5" pointer-events="all"/><rect x="45" y="0" width="20" height="20" fill="none" stroke="rgb(0, 0, 0)" stroke-width="0.5" pointer-events="all"/><g fill="rgb(0, 0, 0)" font-family="Courier New" text-anchor="middle" font-size="10px"><text x="54.5" y="13.5">9</text></g><rect x="65" y="0" width="20" height="20" fill="none" stroke="rgb(0, 0, 0)" stroke-width="0.5" stroke-dasharray="1.5 1.5" pointer-events="all"/><rect x="45" y="80" width="20" height="20" fill="none" stroke="rgb(0, 0, 0)" stroke-width="0.5" pointer-events="all"/><g fill="rgb(0, 0, 0)" font-family="Courier New" text-anchor="middle" font-size="10px"><text x="54.5" y="93.5">9</text></g><rect x="65" y="80" width="20" height="20" fill="none" stroke="rgb(0, 0, 0)" stroke-width="0.5" pointer-events="all"/><g fill="rgb(0, 0, 0)" font-family="Courier New" text-anchor="middle" font-size="10px"><text x="74.5" y="93.5">6</text></g><rect x="105" y="80" width="20" height="20" fill="none" stroke="rgb(0, 0, 0)" stroke-width="0.5" stroke-dasharray="1.5 1.5" pointer-events="all"/><rect x="85" y="80" width="20" height="20" fill="none" stroke="rgb(0, 0, 0)" stroke-width="0.5" pointer-events="all"/><g fill="rgb(0, 0, 0)" font-family="Courier New" text-anchor="middle" font-size="10px"><text x="94.5" y="93.5">2</text></g><rect x="45" y="160" width="20" height="20" fill="none" stroke="rgb(0, 0, 0)" stroke-width="0.5" pointer-events="all"/><g fill="rgb(0, 0, 0)" font-family="Courier New" text-anchor="middle" font-size="10px"><text x="54.5" y="173.5">9</text></g><rect x="65" y="160" width="20" height="20" fill="none" stroke="rgb(0, 0, 0)" stroke-width="0.5" pointer-events="all"/><g fill="rgb(0, 0, 0)" font-family="Courier New" text-anchor="middle" font-size="10px"><text x="74.5" y="173.5">6</text></g><rect x="85" y="160" width="20" height="20" fill="none" stroke="rgb(0, 0, 0)" stroke-width="0.5" pointer-events="all"/><g fill="rgb(0, 0, 0)" font-family="Courier New" text-anchor="middle" font-size="10px"><text x="94.5" y="173.5">2</text></g><rect x="105" y="160" width="20" height="20" fill="none" stroke="rgb(0, 0, 0)" stroke-width="0.5" pointer-events="all"/><g fill="rgb(0, 0, 0)" font-family="Courier New" text-anchor="middle" font-size="10px"><text x="114.5" y="173.5">5</text></g><rect x="125" y="160" width="20" height="20" fill="none" stroke="rgb(0, 0, 0)" stroke-width="0.5" pointer-events="all"/><g fill="rgb(0, 0, 0)" font-family="Courier New" text-anchor="middle" font-size="10px"><text x="134.5" y="173.5">3</text></g><rect x="145" y="160" width="20" height="20" fill="none" stroke="rgb(0, 0, 0)" stroke-width="0.5" stroke-dasharray="1.5 1.5" pointer-events="all"/><rect x="165" y="160" width="20" height="20" fill="none" stroke="rgb(0, 0, 0)" stroke-width="0.5" stroke-dasharray="1.5 1.5" pointer-events="all"/><rect x="185" y="160" width="20" height="20" fill="none" stroke="rgb(0, 0, 0)" stroke-width="0.5" stroke-dasharray="1.5 1.5" pointer-events="all"/><path d="M 5 49.79 L 19.94 49.79" fill="none" stroke="rgb(0, 0, 0)" stroke-width="0.5" stroke-miterlimit="10" pointer-events="stroke"/><path d="M 24.44 49.79 L 19.94 52.04 L 19.94 47.54 Z" fill="rgb(0, 0, 0)" stroke="rgb(0, 0, 0)" stroke-width="0.5" stroke-miterlimit="10" pointer-events="all"/><path d="M 5 129.79 L 19.94 129.79" fill="none" stroke="rgb(0, 0, 0)" stroke-width="0.5" stroke-miterlimit="10" pointer-events="stroke"/><path d="M 24.44 129.79 L 19.94 132.04 L 19.94 127.54 Z" fill="rgb(0, 0, 0)" stroke="rgb(0, 0, 0)" stroke-width="0.5" stroke-miterlimit="10" pointer-events="all"/></g></svg>