<?xml version="1.0" encoding="UTF-8"?>
<!DOCTYPE svg PUBLIC "-//W3C//DTD SVG 1.1//EN" "http://www.w3.org/Graphics/SVG/1.1/DTD/svg11.dtd">
<svg xmlns="http://www.w3.org/2000/svg" xmlns:xlink="http://www.w3.org/1999/xlink" version="1.1" width="501px" height="321px" viewBox="-0.5 -0.5 501 321"><defs/><g><path d="M 145.53 121.06 L 134.47 98.94" fill="none" stroke="rgb(0, 0, 0)" stroke-width="0.5" stroke-miterlimit="10" pointer-events="stroke"/><path d="M 194.47 121.06 L 205.53 98.94" fill="none" stroke="rgb(0, 0, 0)" stroke-width="0.5" stroke-miterlimit="10" pointer-events="stroke"/><path d="M 161.06 45.53 L 98.94 14.47" fill="none" stroke="rgb(0, 0, 0)" stroke-width="0.5" stroke-miterlimit="10" pointer-events="stroke"/><path d="M 202.93 82.93 L 177.07 57.07" fill="none" stroke="rgb(0, 0, 0)" stroke-width="0.5" stroke-miterlimit="10" pointer-events="stroke"/><path d="M 137.07 82.93 L 162.93 57.07" fill="none" stroke="rgb(0, 0, 0)" stroke-width="0.5" stroke-miterlimit="10" pointer-events="stroke"/><ellipse cx="190" cy="130" rx="10" ry="10" fill="none" stroke="rgb(0, 0, 0)" stroke-width="0.5" pointer-events="all"/><ellipse cx="150" cy="130" rx="10" ry="10" fill="none" stroke="rgb(0, 0, 0)" stroke-width="0.5" pointer-events="all"/><ellipse cx="130" cy="90" rx="10" ry="10" fill="none" stroke="rgb(0, 0, 0)" stroke-width="0.5" pointer-events="all"/><ellipse cx="210" cy="90" rx="10" ry="10" fill="none" stroke="rgb(0, 0, 0)" stroke-width="0.5" pointer-events="all"/><ellipse cx="170" cy="50" rx="10" ry="10" fill="none" stroke="rgb(0, 0, 0)" stroke-width="0.5" pointer-events="all"/><ellipse cx="90" cy="10" rx="10" ry="10" fill="none" stroke="rgb(0, 0, 0)" stroke-width="0.5" pointer-events="all"/><path d="M 34.47 121.06 L 45.53 98.94" fill="none" stroke="rgb(0, 0, 0)" stroke-width="0.5" stroke-miterlimit="10" pointer-events="stroke"/><path d="M 65.53 121.06 L 54.47 98.94" fill="none" stroke="rgb(0, 0, 0)" stroke-width="0.5" stroke-miterlimit="10" pointer-events="stroke"/><path d="M 42.93 82.93 L 17.07 57.07" fill="none" stroke="rgb(0, 0, 0)" stroke-width="0.5" stroke-miterlimit="10" pointer-events="stroke"/><ellipse cx="30" cy="130" rx="10" ry="10" fill="none" stroke="rgb(0, 0, 0)" stroke-width="0.5" pointer-events="all"/><ellipse cx="70" cy="130" rx="10" ry="10" fill="none" stroke="rgb(0, 0, 0)" stroke-width="0.5" pointer-events="all"/><g fill="rgb(0, 0, 0)" font-family="Courier New" text-anchor="middle" font-size="10px"><text x="69.5" y="133.5">x</text></g><ellipse cx="50" cy="90" rx="10" ry="10" fill="none" stroke="rgb(0, 0, 0)" stroke-width="0.5" pointer-events="all"/><g fill="rgb(0, 0, 0)" font-family="Courier New" text-anchor="middle" font-size="10px"><text x="49.5" y="93.5">z</text></g><ellipse cx="10" cy="50" rx="10" ry="10" fill="none" stroke="rgb(0, 0, 0)" stroke-width="0.5" pointer-events="all"/><path d="M 81.06 14.47 L 18.94 45.53" fill="none" stroke="rgb(0, 0, 0)" stroke-width="0.5" stroke-miterlimit="10" pointer-events="stroke"/><path d="M 425.53 121.06 L 414.47 98.94" fill="none" stroke="rgb(0, 0, 0)" stroke-width="0.5" stroke-miterlimit="10" pointer-events="stroke"/><path d="M 474.47 121.06 L 485.53 98.94" fill="none" stroke="rgb(0, 0, 0)" stroke-width="0.5" stroke-miterlimit="10" pointer-events="stroke"/><path d="M 441.06 45.53 L 378.94 14.47" fill="none" stroke="rgb(0, 0, 0)" stroke-width="0.5" stroke-miterlimit="10" pointer-events="stroke"/><path d="M 482.93 82.93 L 457.07 57.07" fill="none" stroke="rgb(0, 0, 0)" stroke-width="0.5" stroke-miterlimit="10" pointer-events="stroke"/><path d="M 417.07 82.93 L 442.93 57.07" fill="none" stroke="rgb(0, 0, 0)" stroke-width="0.5" stroke-miterlimit="10" pointer-events="stroke"/><ellipse cx="470" cy="130" rx="10" ry="10" fill="none" stroke="rgb(0, 0, 0)" stroke-width="0.5" pointer-events="all"/><ellipse cx="430" cy="130" rx="10" ry="10" fill="none" stroke="rgb(0, 0, 0)" stroke-width="0.5" pointer-events="all"/><ellipse cx="410" cy="90" rx="10" ry="10" fill="none" stroke="rgb(0, 0, 0)" stroke-width="0.5" pointer-events="all"/><ellipse cx="490" cy="90" rx="10" ry="10" fill="none" stroke="rgb(0, 0, 0)" stroke-width="0.5" pointer-events="all"/><ellipse cx="450" cy="50" rx="10" ry="10" fill="none" stroke="rgb(0, 0, 0)" stroke-width="0.5" pointer-events="all"/><ellipse cx="370" cy="10" rx="10" ry="10" fill="none" stroke="rgb(0, 0, 0)" stroke-width="0.5" pointer-events="all"/><path d="M 314.47 121.06 L 325.53 98.94" fill="none" stroke="rgb(0, 0, 0)" stroke-width="0.5" stroke-miterlimit="10" pointer-events="stroke"/><path d="M 322.93 82.93 L 297.07 57.07" fill="none" stroke="rgb(0, 0, 0)" stroke-width="0.5" stroke-miterlimit="10" pointer-events="stroke"/><ellipse cx="310" cy="130" rx="10" ry="10" fill="none" stroke="rgb(0, 0, 0)" stroke-width="0.5" pointer-events="all"/><ellipse cx="330" cy="90" rx="10" ry="10" fill="none" stroke="rgb(0, 0, 0)" stroke-width="0.5" pointer-events="all"/><g fill="rgb(0, 0, 0)" font-family="Courier New" text-anchor="middle" font-size="10px"><text x="329.5" y="93.5">z</text></g><ellipse cx="290" cy="50" rx="10" ry="10" fill="none" stroke="rgb(0, 0, 0)" stroke-width="0.5" pointer-events="all"/><path d="M 361.06 14.47 L 298.94 45.53" fill="none" stroke="rgb(0, 0, 0)" stroke-width="0.5" stroke-miterlimit="10" pointer-events="stroke"/><path d="M 235.25 81.75 L 235.25 78.25 L 258.25 78.25 L 258.25 74.5 L 264.75 80 L 258.25 85.5 L 258.25 81.75 Z" fill="none" stroke="rgb(0, 0, 0)" stroke-width="0.5" stroke-miterlimit="10" pointer-events="all"/><path d="M 145.53 301.06 L 134.47 278.94" fill="none" stroke="rgb(0, 0, 0)" stroke-width="0.5" stroke-miterlimit="10" pointer-events="stroke"/><path d="M 194.47 301.06 L 205.53 278.94" fill="none" stroke="rgb(0, 0, 0)" stroke-width="0.5" stroke-miterlimit="10" pointer-events="stroke"/><path d="M 161.06 225.53 L 98.94 194.47" fill="none" stroke="rgb(0, 0, 0)" stroke-width="0.5" stroke-miterlimit="10" pointer-events="stroke"/><path d="M 202.93 262.93 L 177.07 237.07" fill="none" stroke="rgb(0, 0, 0)" stroke-width="0.5" stroke-miterlimit="10" pointer-events="stroke"/><path d="M 137.07 262.93 L 162.93 237.07" fill="none" stroke="rgb(0, 0, 0)" stroke-width="0.5" stroke-miterlimit="10" pointer-events="stroke"/><ellipse cx="190" cy="310" rx="10" ry="10" fill="none" stroke="rgb(0, 0, 0)" stroke-width="0.5" pointer-events="all"/><g fill="rgb(0, 0, 0)" font-family="Courier New" text-anchor="middle" font-size="10px"><text x="189.5" y="313.5">z</text></g><ellipse cx="150" cy="310" rx="10" ry="10" fill="none" stroke="rgb(0, 0, 0)" stroke-width="0.5" pointer-events="all"/><ellipse cx="130" cy="270" rx="10" ry="10" fill="none" stroke="rgb(0, 0, 0)" stroke-width="0.5" pointer-events="all"/><ellipse cx="210" cy="270" rx="10" ry="10" fill="none" stroke="rgb(0, 0, 0)" stroke-width="0.5" pointer-events="all"/><g fill="rgb(0, 0, 0)" font-family="Courier New" text-anchor="middle" font-size="10px"><text x="209.5" y="273.5">x</text></g><ellipse cx="170" cy="230" rx="10" ry="10" fill="none" stroke="rgb(0, 0, 0)" stroke-width="0.5" pointer-events="all"/><ellipse cx="90" cy="190" rx="10" ry="10" fill="none" stroke="rgb(0, 0, 0)" stroke-width="0.5" pointer-events="all"/><path d="M 34.47 301.06 L 45.53 278.94" fill="none" stroke="rgb(0, 0, 0)" stroke-width="0.5" stroke-miterlimit="10" pointer-events="stroke"/><path d="M 65.53 301.06 L 54.47 278.94" fill="none" stroke="rgb(0, 0, 0)" stroke-width="0.5" stroke-miterlimit="10" pointer-events="stroke"/><path d="M 42.93 262.93 L 17.07 237.07" fill="none" stroke="rgb(0, 0, 0)" stroke-width="0.5" stroke-miterlimit="10" pointer-events="stroke"/><ellipse cx="30" cy="310" rx="10" ry="10" fill="none" stroke="rgb(0, 0, 0)" stroke-width="0.5" pointer-events="all"/><ellipse cx="70" cy="310" rx="10" ry="10" fill="none" stroke="rgb(0, 0, 0)" stroke-width="0.5" pointer-events="all"/><ellipse cx="50" cy="270" rx="10" ry="10" fill="none" stroke="rgb(0, 0, 0)" stroke-width="0.5" pointer-events="all"/><ellipse cx="10" cy="230" rx="10" ry="10" fill="none" stroke="rgb(0, 0, 0)" stroke-width="0.5" pointer-events="all"/><path d="M 81.06 194.47 L 18.94 225.53" fill="none" stroke="rgb(0, 0, 0)" stroke-width="0.5" stroke-miterlimit="10" pointer-events="stroke"/><path d="M 425.53 301.06 L 414.47 278.94" fill="none" stroke="rgb(0, 0, 0)" stroke-width="0.5" stroke-miterlimit="10" pointer-events="stroke"/><path d="M 441.06 225.53 L 378.94 194.47" fill="none" stroke="rgb(0, 0, 0)" stroke-width="0.5" stroke-miterlimit="10" pointer-events="stroke"/><path d="M 482.93 262.93 L 457.07 237.07" fill="none" stroke="rgb(0, 0, 0)" stroke-width="0.5" stroke-miterlimit="10" pointer-events="stroke"/><path d="M 417.07 262.93 L 442.93 237.07" fill="none" stroke="rgb(0, 0, 0)" stroke-width="0.5" stroke-miterlimit="10" pointer-events="stroke"/><ellipse cx="430" cy="310" rx="10" ry="10" fill="none" stroke="rgb(0, 0, 0)" stroke-width="0.5" pointer-events="all"/><ellipse cx="410" cy="270" rx="10" ry="10" fill="none" stroke="rgb(0, 0, 0)" stroke-width="0.5" pointer-events="all"/><ellipse cx="490" cy="270" rx="10" ry="10" fill="none" stroke="rgb(0, 0, 0)" stroke-width="0.5" pointer-events="all"/><g fill="rgb(0, 0, 0)" font-family="Courier New" text-anchor="middle" font-size="10px"><text x="489.5" y="273.5">z</text></g><ellipse cx="450" cy="230" rx="10" ry="10" fill="none" stroke="rgb(0, 0, 0)" stroke-width="0.5" pointer-events="all"/><ellipse cx="370" cy="190" rx="10" ry="10" fill="none" stroke="rgb(0, 0, 0)" stroke-width="0.5" pointer-events="all"/><path d="M 314.47 301.06 L 325.53 278.94" fill="none" stroke="rgb(0, 0, 0)" stroke-width="0.5" stroke-miterlimit="10" pointer-events="stroke"/><path d="M 322.93 262.93 L 297.07 237.07" fill="none" stroke="rgb(0, 0, 0)" stroke-width="0.5" stroke-miterlimit="10" pointer-events="stroke"/><ellipse cx="310" cy="310" rx="10" ry="10" fill="none" stroke="rgb(0, 0, 0)" stroke-width="0.5" pointer-events="all"/><ellipse cx="330" cy="270" rx="10" ry="10" fill="none" stroke="rgb(0, 0, 0)" stroke-width="0.5" pointer-events="all"/><ellipse cx="290" cy="230" rx="10" ry="10" fill="none" stroke="rgb(0, 0, 0)" stroke-width="0.5" pointer-events="all"/><path d="M 361.06 194.47 L 298.94 225.53" fill="none" stroke="rgb(0, 0, 0)" stroke-width="0.5" stroke-miterlimit="10" pointer-events="stroke"/><path d="M 235.25 261.75 L 235.25 258.25 L 258.25 258.25 L 258.25 254.5 L 264.75 260 L 258.25 265.5 L 258.25 261.75 Z" fill="none" stroke="rgb(0, 0, 0)" stroke-width="0.5" stroke-miterlimit="10" pointer-events="all"/><ellipse cx="350" cy="310" rx="10" ry="10" fill="none" stroke="rgb(0, 0, 0)" stroke-width="0.5" pointer-events="all"/><path d="M 345.53 301.06 L 334.47 278.94" fill="none" stroke="rgb(0, 0, 0)" stroke-width="0.5" stroke-miterlimit="10" pointer-events="stroke"/></g></svg>