<?xml version="1.0" encoding="UTF-8"?>
<!DOCTYPE svg PUBLIC "-//W3C//DTD SVG 1.1//EN" "http://www.w3.org/Graphics/SVG/1.1/DTD/svg11.dtd">
<svg xmlns="http://www.w3.org/2000/svg" xmlns:xlink="http://www.w3.org/1999/xlink" version="1.1" width="321px" height="141px" viewBox="-0.5 -0.5 321 141"><defs/><g><path d="M 14.47 81.06 L 25.53 58.94" fill="none" stroke="rgb(0, 0, 0)" stroke-width="0.5" stroke-miterlimit="10" stroke-dasharray="1.5 1.5" pointer-events="stroke"/><path d="M 45.53 81.06 L 34.47 58.94" fill="none" stroke="rgb(0, 0, 0)" stroke-width="0.5" stroke-miterlimit="10" stroke-dasharray="1.5 1.5" pointer-events="stroke"/><path d="M 94.47 81.06 L 105.53 58.94" fill="none" stroke="rgb(0, 0, 0)" stroke-width="0.5" stroke-miterlimit="10" stroke-dasharray="1.5 1.5" pointer-events="stroke"/><path d="M 125.53 81.06 L 114.47 58.94" fill="none" stroke="rgb(0, 0, 0)" stroke-width="0.5" stroke-miterlimit="10" stroke-dasharray="1.5 1.5" pointer-events="stroke"/><path d="M 102.93 42.93 L 77.07 17.07" fill="none" stroke="rgb(0, 0, 0)" stroke-width="0.5" stroke-miterlimit="10" pointer-events="stroke"/><path d="M 37.07 42.93 L 62.93 17.07" fill="none" stroke="rgb(0, 0, 0)" stroke-width="0.5" stroke-miterlimit="10" pointer-events="stroke"/><ellipse cx="90" cy="90" rx="10" ry="10" fill="none" stroke="rgb(0, 0, 0)" stroke-width="0.5" pointer-events="all"/><ellipse cx="10" cy="90" rx="10" ry="10" fill="none" stroke="rgb(0, 0, 0)" stroke-width="0.5" pointer-events="all"/><ellipse cx="50" cy="90" rx="10" ry="10" fill="none" stroke="rgb(0, 0, 0)" stroke-width="0.5" pointer-events="all"/><ellipse cx="130" cy="90" rx="10" ry="10" fill="none" stroke="rgb(0, 0, 0)" stroke-width="0.5" pointer-events="all"/><ellipse cx="30" cy="50" rx="10" ry="10" fill="none" stroke="rgb(0, 0, 0)" stroke-width="0.5" pointer-events="all"/><ellipse cx="110" cy="50" rx="10" ry="10" fill="none" stroke="rgb(0, 0, 0)" stroke-width="0.5" pointer-events="all"/><ellipse cx="70" cy="10" rx="10" ry="10" fill="none" stroke="rgb(0, 0, 0)" stroke-width="0.5" pointer-events="all"/><path d="M 302.93 122.93 L 277.07 97.07" fill="none" stroke="rgb(0, 0, 0)" stroke-width="0.5" stroke-miterlimit="10" stroke-dasharray="1.5 1.5" pointer-events="stroke"/><path d="M 262.93 82.93 L 237.07 57.07" fill="none" stroke="rgb(0, 0, 0)" stroke-width="0.5" stroke-miterlimit="10" pointer-events="stroke"/><path d="M 222.93 42.93 L 197.07 17.07" fill="none" stroke="rgb(0, 0, 0)" stroke-width="0.5" stroke-miterlimit="10" pointer-events="stroke"/><ellipse cx="310" cy="130" rx="10" ry="10" fill="none" stroke="rgb(0, 0, 0)" stroke-width="0.5" pointer-events="all"/><ellipse cx="270" cy="90" rx="10" ry="10" fill="none" stroke="rgb(0, 0, 0)" stroke-width="0.5" pointer-events="all"/><ellipse cx="230" cy="50" rx="10" ry="10" fill="none" stroke="rgb(0, 0, 0)" stroke-width="0.5" pointer-events="all"/><ellipse cx="190" cy="10" rx="10" ry="10" fill="none" stroke="rgb(0, 0, 0)" stroke-width="0.5" pointer-events="all"/></g></svg>