<?xml version="1.0" encoding="UTF-8"?>
<!DOCTYPE svg PUBLIC "-//W3C//DTD SVG 1.1//EN" "http://www.w3.org/Graphics/SVG/1.1/DTD/svg11.dtd">
<svg xmlns="http://www.w3.org/2000/svg" xmlns:xlink="http://www.w3.org/1999/xlink" version="1.1" width="221px" height="141px" viewBox="-0.5 -0.5 221 141"><defs/><g><path d="M 130 120 L 130 100" fill="none" stroke="rgb(0, 0, 0)" stroke-width="0.5" stroke-miterlimit="10" pointer-events="stroke"/><path d="M 162.93 122.93 L 137.07 97.07" fill="none" stroke="rgb(0, 0, 0)" stroke-width="0.5" stroke-miterlimit="10" pointer-events="stroke"/><path d="M 201.04 125.56 L 138.94 94.47" fill="none" stroke="rgb(0, 0, 0)" stroke-width="0.5" stroke-miterlimit="10" pointer-events="stroke"/><path d="M 122.93 42.93 L 97.07 17.07" fill="none" stroke="rgb(0, 0, 0)" stroke-width="0.5" stroke-miterlimit="10" pointer-events="stroke"/><path d="M 162.93 82.93 L 137.07 57.07" fill="none" stroke="rgb(0, 0, 0)" stroke-width="0.5" stroke-miterlimit="10" pointer-events="stroke"/><path d="M 130 80 L 130 60" fill="none" stroke="rgb(0, 0, 0)" stroke-width="0.5" stroke-miterlimit="10" pointer-events="stroke"/><ellipse cx="210" cy="130" rx="10" ry="10" fill="none" stroke="rgb(0, 0, 0)" stroke-width="0.5" pointer-events="all"/><ellipse cx="130" cy="130" rx="10" ry="10" fill="none" stroke="rgb(0, 0, 0)" stroke-width="0.5" pointer-events="all"/><ellipse cx="170" cy="130" rx="10" ry="10" fill="none" stroke="rgb(0, 0, 0)" stroke-width="0.5" pointer-events="all"/><ellipse cx="130" cy="90" rx="10" ry="10" fill="none" stroke="rgb(0, 0, 0)" stroke-width="0.5" pointer-events="all"/><ellipse cx="170" cy="90" rx="10" ry="10" fill="none" stroke="rgb(0, 0, 0)" stroke-width="0.5" pointer-events="all"/><ellipse cx="130" cy="50" rx="10" ry="10" fill="none" stroke="rgb(0, 0, 0)" stroke-width="0.5" pointer-events="all"/><ellipse cx="90" cy="10" rx="10" ry="10" fill="none" stroke="rgb(0, 0, 0)" stroke-width="0.5" pointer-events="all"/><path d="M 10 120 L 10 100" fill="none" stroke="rgb(0, 0, 0)" stroke-width="0.5" stroke-miterlimit="10" pointer-events="stroke"/><path d="M 50 80 L 50 60" fill="none" stroke="rgb(0, 0, 0)" stroke-width="0.5" stroke-miterlimit="10" pointer-events="stroke"/><path d="M 57.07 122.93 L 82.93 97.07" fill="none" stroke="rgb(0, 0, 0)" stroke-width="0.5" stroke-miterlimit="10" pointer-events="stroke"/><path d="M 90 120 L 90 100" fill="none" stroke="rgb(0, 0, 0)" stroke-width="0.5" stroke-miterlimit="10" pointer-events="stroke"/><path d="M 82.93 82.93 L 57.07 57.07" fill="none" stroke="rgb(0, 0, 0)" stroke-width="0.5" stroke-miterlimit="10" pointer-events="stroke"/><path d="M 17.07 82.93 L 42.93 57.07" fill="none" stroke="rgb(0, 0, 0)" stroke-width="0.5" stroke-miterlimit="10" pointer-events="stroke"/><ellipse cx="50" cy="130" rx="10" ry="10" fill="none" stroke="rgb(0, 0, 0)" stroke-width="0.5" pointer-events="all"/><ellipse cx="10" cy="130" rx="10" ry="10" fill="none" stroke="rgb(0, 0, 0)" stroke-width="0.5" pointer-events="all"/><ellipse cx="50" cy="90" rx="10" ry="10" fill="none" stroke="rgb(0, 0, 0)" stroke-width="0.5" pointer-events="all"/><ellipse cx="90" cy="130" rx="10" ry="10" fill="none" stroke="rgb(0, 0, 0)" stroke-width="0.5" pointer-events="all"/><ellipse cx="10" cy="90" rx="10" ry="10" fill="none" stroke="rgb(0, 0, 0)" stroke-width="0.5" pointer-events="all"/><ellipse cx="90" cy="90" rx="10" ry="10" fill="none" stroke="rgb(0, 0, 0)" stroke-width="0.5" pointer-events="all"/><ellipse cx="50" cy="50" rx="10" ry="10" fill="none" stroke="rgb(0, 0, 0)" stroke-width="0.5" pointer-events="all"/><path d="M 82.93 17.07 L 57.07 42.93" fill="none" stroke="rgb(0, 0, 0)" stroke-width="0.5" stroke-miterlimit="10" pointer-events="stroke"/></g></svg>