<?xml version="1.0" encoding="UTF-8"?>
<!DOCTYPE svg PUBLIC "-//W3C//DTD SVG 1.1//EN" "http://www.w3.org/Graphics/SVG/1.1/DTD/svg11.dtd">
<svg xmlns="http://www.w3.org/2000/svg" xmlns:xlink="http://www.w3.org/1999/xlink" version="1.1" width="523px" height="402px" viewBox="-0.5 -0.5 523 402"><defs/><g><rect x="301" y="10" width="20" height="20" fill="none" stroke="rgb(0, 0, 0)" stroke-width="0.5" pointer-events="all"/><path d="M 310.48 21.73 L 310.94 59.94" fill="none" stroke="rgb(0, 0, 0)" stroke-width="0.5" stroke-miterlimit="10" pointer-events="stroke"/><ellipse cx="310.46" cy="19.73" rx="2" ry="2" fill="rgb(0, 0, 0)" stroke="rgb(0, 0, 0)" stroke-width="0.5" pointer-events="all"/><path d="M 310.99 64.44 L 308.69 59.97 L 313.19 59.91 Z" fill="rgb(0, 0, 0)" stroke="rgb(0, 0, 0)" stroke-width="0.5" stroke-miterlimit="10" pointer-events="all"/><rect x="291" y="70" width="20" height="20" fill="none" stroke="rgb(0, 0, 0)" stroke-width="0.5" pointer-events="all"/><g fill="rgb(0, 0, 0)" font-family="Courier New" text-anchor="middle" font-size="10px"><text x="300.5" y="83.5">9</text></g><rect x="311" y="70" width="20" height="20" fill="none" stroke="rgb(0, 0, 0)" stroke-width="0.5" pointer-events="all"/><rect x="371" y="70" width="20" height="20" fill="none" stroke="rgb(0, 0, 0)" stroke-width="0.5" pointer-events="all"/><g fill="rgb(0, 0, 0)" font-family="Courier New" text-anchor="middle" font-size="10px"><text x="380.5" y="83.5">2</text></g><rect x="391" y="70" width="20" height="20" fill="none" stroke="rgb(0, 0, 0)" stroke-width="0.5" pointer-events="all"/><path d="M 323 79.77 L 360.94 79.77" fill="none" stroke="rgb(0, 0, 0)" stroke-width="0.5" stroke-miterlimit="10" pointer-events="stroke"/><ellipse cx="321" cy="79.77" rx="2" ry="2" fill="rgb(0, 0, 0)" stroke="rgb(0, 0, 0)" stroke-width="0.5" pointer-events="all"/><path d="M 365.44 79.77 L 360.94 82.02 L 360.94 77.52 Z" fill="rgb(0, 0, 0)" stroke="rgb(0, 0, 0)" stroke-width="0.5" stroke-miterlimit="10" pointer-events="all"/><path d="M 403 79.83 L 440.94 79.83" fill="none" stroke="rgb(0, 0, 0)" stroke-width="0.5" stroke-miterlimit="10" pointer-events="stroke"/><ellipse cx="401" cy="79.83" rx="2" ry="2" fill="rgb(0, 0, 0)" stroke="rgb(0, 0, 0)" stroke-width="0.5" pointer-events="all"/><path d="M 445.44 79.83 L 440.94 82.08 L 440.94 77.58 Z" fill="rgb(0, 0, 0)" stroke="rgb(0, 0, 0)" stroke-width="0.5" stroke-miterlimit="10" pointer-events="all"/><rect x="451" y="70" width="20" height="20" fill="none" stroke="rgb(0, 0, 0)" stroke-width="0.5" pointer-events="all"/><g fill="rgb(0, 0, 0)" font-family="Courier New" text-anchor="middle" font-size="10px"><text x="460.5" y="83.5">7</text></g><rect x="471" y="70" width="20" height="20" fill="none" stroke="rgb(0, 0, 0)" stroke-width="0.5" pointer-events="all"/><path d="M 471 90 L 491 70" fill="none" stroke="rgb(0, 0, 0)" stroke-width="0.5" stroke-miterlimit="10" pointer-events="stroke"/><path d="M 491 90 L 471 70" fill="none" stroke="rgb(0, 0, 0)" stroke-width="0.5" stroke-miterlimit="10" pointer-events="stroke"/><rect x="301" y="130" width="20" height="20" fill="none" stroke="rgb(0, 0, 0)" stroke-width="0.5" pointer-events="all"/><path d="M 310.48 141.73 L 310.94 179.94" fill="none" stroke="rgb(0, 0, 0)" stroke-width="0.5" stroke-miterlimit="10" pointer-events="stroke"/><ellipse cx="310.46" cy="139.73" rx="2" ry="2" fill="rgb(0, 0, 0)" stroke="rgb(0, 0, 0)" stroke-width="0.5" pointer-events="all"/><path d="M 310.99 184.44 L 308.69 179.97 L 313.19 179.91 Z" fill="rgb(0, 0, 0)" stroke="rgb(0, 0, 0)" stroke-width="0.5" stroke-miterlimit="10" pointer-events="all"/><rect x="291" y="190" width="20" height="20" fill="none" stroke="rgb(0, 0, 0)" stroke-width="0.5" pointer-events="all"/><g fill="rgb(0, 0, 0)" font-family="Courier New" text-anchor="middle" font-size="10px"><text x="300.5" y="203.5">2</text></g><rect x="311" y="190" width="20" height="20" fill="none" stroke="rgb(0, 0, 0)" stroke-width="0.5" pointer-events="all"/><rect x="371" y="190" width="20" height="20" fill="none" stroke="rgb(0, 0, 0)" stroke-width="0.5" pointer-events="all"/><g fill="rgb(0, 0, 0)" font-family="Courier New" text-anchor="middle" font-size="10px"><text x="380.5" y="203.5">7</text></g><rect x="391" y="190" width="20" height="20" fill="none" stroke="rgb(0, 0, 0)" stroke-width="0.5" pointer-events="all"/><path d="M 323 199.77 L 360.94 199.77" fill="none" stroke="rgb(0, 0, 0)" stroke-width="0.5" stroke-miterlimit="10" pointer-events="stroke"/><ellipse cx="321" cy="199.77" rx="2" ry="2" fill="rgb(0, 0, 0)" stroke="rgb(0, 0, 0)" stroke-width="0.5" pointer-events="all"/><path d="M 365.44 199.77 L 360.94 202.02 L 360.94 197.52 Z" fill="rgb(0, 0, 0)" stroke="rgb(0, 0, 0)" stroke-width="0.5" stroke-miterlimit="10" pointer-events="all"/><path d="M 391 210 L 411 190" fill="none" stroke="rgb(0, 0, 0)" stroke-width="0.5" stroke-miterlimit="10" pointer-events="stroke"/><path d="M 411 210 L 391 190" fill="none" stroke="rgb(0, 0, 0)" stroke-width="0.5" stroke-miterlimit="10" pointer-events="stroke"/><rect x="301" y="250" width="20" height="20" fill="none" stroke="rgb(0, 0, 0)" stroke-width="0.5" pointer-events="all"/><path d="M 310.48 261.73 L 310.94 299.94" fill="none" stroke="rgb(0, 0, 0)" stroke-width="0.5" stroke-miterlimit="10" pointer-events="stroke"/><ellipse cx="310.46" cy="259.73" rx="2" ry="2" fill="rgb(0, 0, 0)" stroke="rgb(0, 0, 0)" stroke-width="0.5" pointer-events="all"/><path d="M 310.99 304.44 L 308.69 299.97 L 313.19 299.91 Z" fill="rgb(0, 0, 0)" stroke="rgb(0, 0, 0)" stroke-width="0.5" stroke-miterlimit="10" pointer-events="all"/><rect x="291" y="310" width="20" height="20" fill="none" stroke="rgb(0, 0, 0)" stroke-width="0.5" pointer-events="all"/><g fill="rgb(0, 0, 0)" font-family="Courier New" text-anchor="middle" font-size="10px"><text x="300.5" y="323.5">7</text></g><rect x="311" y="310" width="20" height="20" fill="none" stroke="rgb(0, 0, 0)" stroke-width="0.5" pointer-events="all"/><path d="M 311 330 L 331 310" fill="none" stroke="rgb(0, 0, 0)" stroke-width="0.5" stroke-miterlimit="10" pointer-events="stroke"/><path d="M 331 330 L 311 310" fill="none" stroke="rgb(0, 0, 0)" stroke-width="0.5" stroke-miterlimit="10" pointer-events="stroke"/><rect x="301" y="370" width="20" height="20" fill="none" stroke="rgb(0, 0, 0)" stroke-width="0.5" pointer-events="all"/><path d="M 301 390 L 321 370" fill="none" stroke="rgb(0, 0, 0)" stroke-width="0.5" stroke-miterlimit="10" pointer-events="stroke"/><path d="M 321 390 L 301 370" fill="none" stroke="rgb(0, 0, 0)" stroke-width="0.5" stroke-miterlimit="10" pointer-events="stroke"/><rect x="41" y="310" width="20" height="20" fill="none" stroke="rgb(0, 0, 0)" stroke-width="0.5" pointer-events="all"/><path d="M 50.48 321.73 L 50.94 359.94" fill="none" stroke="rgb(0, 0, 0)" stroke-width="0.5" stroke-miterlimit="10" pointer-events="stroke"/><ellipse cx="50.46" cy="319.73" rx="2" ry="2" fill="rgb(0, 0, 0)" stroke="rgb(0, 0, 0)" stroke-width="0.5" pointer-events="all"/><path d="M 50.99 364.44 L 48.69 359.97 L 53.19 359.91 Z" fill="rgb(0, 0, 0)" stroke="rgb(0, 0, 0)" stroke-width="0.5" stroke-miterlimit="10" pointer-events="all"/><rect x="31" y="370" width="20" height="20" fill="none" stroke="rgb(0, 0, 0)" stroke-width="0.5" pointer-events="all"/><g fill="rgb(0, 0, 0)" font-family="Courier New" text-anchor="middle" font-size="10px"><text x="40.5" y="383.5">9</text></g><rect x="51" y="370" width="20" height="20" fill="none" stroke="rgb(0, 0, 0)" stroke-width="0.5" pointer-events="all"/><rect x="111" y="370" width="20" height="20" fill="none" stroke="rgb(0, 0, 0)" stroke-width="0.5" pointer-events="all"/><g fill="rgb(0, 0, 0)" font-family="Courier New" text-anchor="middle" font-size="10px"><text x="120.5" y="383.5">2</text></g><rect x="131" y="370" width="20" height="20" fill="none" stroke="rgb(0, 0, 0)" stroke-width="0.5" pointer-events="all"/><path d="M 63 379.77 L 100.94 379.77" fill="none" stroke="rgb(0, 0, 0)" stroke-width="0.5" stroke-miterlimit="10" pointer-events="stroke"/><ellipse cx="61" cy="379.77" rx="2" ry="2" fill="rgb(0, 0, 0)" stroke="rgb(0, 0, 0)" stroke-width="0.5" pointer-events="all"/><path d="M 105.44 379.77 L 100.94 382.02 L 100.94 377.52 Z" fill="rgb(0, 0, 0)" stroke="rgb(0, 0, 0)" stroke-width="0.5" stroke-miterlimit="10" pointer-events="all"/><path d="M 143 379.83 L 180.94 379.83" fill="none" stroke="rgb(0, 0, 0)" stroke-width="0.5" stroke-miterlimit="10" pointer-events="stroke"/><ellipse cx="141" cy="379.83" rx="2" ry="2" fill="rgb(0, 0, 0)" stroke="rgb(0, 0, 0)" stroke-width="0.5" pointer-events="all"/><path d="M 185.44 379.83 L 180.94 382.08 L 180.94 377.58 Z" fill="rgb(0, 0, 0)" stroke="rgb(0, 0, 0)" stroke-width="0.5" stroke-miterlimit="10" pointer-events="all"/><rect x="191" y="370" width="20" height="20" fill="none" stroke="rgb(0, 0, 0)" stroke-width="0.5" pointer-events="all"/><g fill="rgb(0, 0, 0)" font-family="Courier New" text-anchor="middle" font-size="10px"><text x="200.5" y="383.5">7</text></g><rect x="211" y="370" width="20" height="20" fill="none" stroke="rgb(0, 0, 0)" stroke-width="0.5" pointer-events="all"/><path d="M 211 390 L 231 370" fill="none" stroke="rgb(0, 0, 0)" stroke-width="0.5" stroke-miterlimit="10" pointer-events="stroke"/><path d="M 231 390 L 211 370" fill="none" stroke="rgb(0, 0, 0)" stroke-width="0.5" stroke-miterlimit="10" pointer-events="stroke"/><path d="M 50.48 201.73 L 50.94 239.94" fill="none" stroke="rgb(0, 0, 0)" stroke-width="0.5" stroke-miterlimit="10" pointer-events="stroke"/><ellipse cx="50.46" cy="199.73" rx="2" ry="2" fill="rgb(0, 0, 0)" stroke="rgb(0, 0, 0)" stroke-width="0.5" pointer-events="all"/><path d="M 50.99 244.44 L 48.69 239.97 L 53.19 239.91 Z" fill="rgb(0, 0, 0)" stroke="rgb(0, 0, 0)" stroke-width="0.5" stroke-miterlimit="10" pointer-events="all"/><rect x="31" y="250" width="20" height="20" fill="none" stroke="rgb(0, 0, 0)" stroke-width="0.5" pointer-events="all"/><g fill="rgb(0, 0, 0)" font-family="Courier New" text-anchor="middle" font-size="10px"><text x="40.5" y="263.5">2</text></g><rect x="51" y="250" width="20" height="20" fill="none" stroke="rgb(0, 0, 0)" stroke-width="0.5" pointer-events="all"/><rect x="111" y="250" width="20" height="20" fill="none" stroke="rgb(0, 0, 0)" stroke-width="0.5" pointer-events="all"/><g fill="rgb(0, 0, 0)" font-family="Courier New" text-anchor="middle" font-size="10px"><text x="120.5" y="263.5">7</text></g><rect x="131" y="250" width="20" height="20" fill="none" stroke="rgb(0, 0, 0)" stroke-width="0.5" pointer-events="all"/><path d="M 63 259.77 L 100.94 259.77" fill="none" stroke="rgb(0, 0, 0)" stroke-width="0.5" stroke-miterlimit="10" pointer-events="stroke"/><ellipse cx="61" cy="259.77" rx="2" ry="2" fill="rgb(0, 0, 0)" stroke="rgb(0, 0, 0)" stroke-width="0.5" pointer-events="all"/><path d="M 105.44 259.77 L 100.94 262.02 L 100.94 257.52 Z" fill="rgb(0, 0, 0)" stroke="rgb(0, 0, 0)" stroke-width="0.5" stroke-miterlimit="10" pointer-events="all"/><path d="M 131 270 L 151 250" fill="none" stroke="rgb(0, 0, 0)" stroke-width="0.5" stroke-miterlimit="10" pointer-events="stroke"/><path d="M 151 270 L 131 250" fill="none" stroke="rgb(0, 0, 0)" stroke-width="0.5" stroke-miterlimit="10" pointer-events="stroke"/><rect x="41" y="70" width="20" height="20" fill="none" stroke="rgb(0, 0, 0)" stroke-width="0.5" pointer-events="all"/><path d="M 50.48 81.73 L 50.94 119.94" fill="none" stroke="rgb(0, 0, 0)" stroke-width="0.5" stroke-miterlimit="10" pointer-events="stroke"/><ellipse cx="50.46" cy="79.73" rx="2" ry="2" fill="rgb(0, 0, 0)" stroke="rgb(0, 0, 0)" stroke-width="0.5" pointer-events="all"/><path d="M 50.99 124.44 L 48.69 119.97 L 53.19 119.91 Z" fill="rgb(0, 0, 0)" stroke="rgb(0, 0, 0)" stroke-width="0.5" stroke-miterlimit="10" pointer-events="all"/><rect x="31" y="130" width="20" height="20" fill="none" stroke="rgb(0, 0, 0)" stroke-width="0.5" pointer-events="all"/><g fill="rgb(0, 0, 0)" font-family="Courier New" text-anchor="middle" font-size="10px"><text x="40.5" y="143.5">7</text></g><rect x="51" y="130" width="20" height="20" fill="none" stroke="rgb(0, 0, 0)" stroke-width="0.5" pointer-events="all"/><path d="M 51 150 L 71 130" fill="none" stroke="rgb(0, 0, 0)" stroke-width="0.5" stroke-miterlimit="10" pointer-events="stroke"/><path d="M 71 150 L 51 130" fill="none" stroke="rgb(0, 0, 0)" stroke-width="0.5" stroke-miterlimit="10" pointer-events="stroke"/><rect x="41" y="10" width="20" height="20" fill="none" stroke="rgb(0, 0, 0)" stroke-width="0.5" pointer-events="all"/><path d="M 41 30 L 61 10" fill="none" stroke="rgb(0, 0, 0)" stroke-width="0.5" stroke-miterlimit="10" pointer-events="stroke"/><path d="M 61 30 L 41 10" fill="none" stroke="rgb(0, 0, 0)" stroke-width="0.5" stroke-miterlimit="10" pointer-events="stroke"/><rect x="41" y="189" width="20" height="20" fill="none" stroke="rgb(0, 0, 0)" stroke-width="0.5" pointer-events="all"/><path d="M 261 400 L 261 0" fill="none" stroke="rgb(0, 0, 0)" stroke-miterlimit="10" stroke-dasharray="3 3" pointer-events="stroke"/><path d="M 1 400 L 0.31 0" fill="none" stroke="rgb(0, 0, 0)" stroke-miterlimit="10" stroke-dasharray="3 3" pointer-events="stroke"/><path d="M 521 400 L 521 0" fill="none" stroke="rgb(0, 0, 0)" stroke-miterlimit="10" stroke-dasharray="3 3" pointer-events="stroke"/></g></svg>